<?xml version="1.0" encoding="UTF-8" standalone="no"?>
<!-- Created with Inkscape (http://www.inkscape.org/) -->

<svg
   width="50"
   height="50"
   viewBox="0 0 49.999998 49.999998"
   id="svg4870"
   version="1.1"
   inkscape:version="1.1 (c68e22c387, 2021-05-23)"
   sodipodi:docname="entree_batiment.svg"
   inkscape:export-filename="Q:\800_SDIS\804_MODELE_DONNEES_SDIS\GitHub\data-model-sdis\doc\png\acces_reconnaissance.png"
   inkscape:export-xdpi="90"
   inkscape:export-ydpi="90"
   xmlns:inkscape="http://www.inkscape.org/namespaces/inkscape"
   xmlns:sodipodi="http://sodipodi.sourceforge.net/DTD/sodipodi-0.dtd"
   xmlns="http://www.w3.org/2000/svg"
   xmlns:svg="http://www.w3.org/2000/svg"
   xmlns:rdf="http://www.w3.org/1999/02/22-rdf-syntax-ns#"
   xmlns:cc="http://creativecommons.org/ns#"
   xmlns:dc="http://purl.org/dc/elements/1.1/">
  <defs
     id="defs4872" />
  <sodipodi:namedview
     id="base"
     pagecolor="#ffffff"
     bordercolor="#666666"
     borderopacity="1.0"
     inkscape:pageopacity="0.0"
     inkscape:pageshadow="2"
     inkscape:zoom="18.466965"
     inkscape:cx="27.643958"
     inkscape:cy="27.156601"
     inkscape:document-units="px"
     inkscape:current-layer="layer1"
     showgrid="false"
     fit-margin-top="0"
     fit-margin-left="0"
     fit-margin-right="0"
     fit-margin-bottom="0"
     inkscape:window-width="1920"
     inkscape:window-height="1017"
     inkscape:window-x="-8"
     inkscape:window-y="-8"
     inkscape:window-maximized="1"
     inkscape:snap-grids="true"
     units="px"
     inkscape:pagecheckerboard="0" />
  <metadata
     id="metadata4875">
    <rdf:RDF>
      <cc:Work
         rdf:about="">
        <dc:format>image/svg+xml</dc:format>
        <dc:type
           rdf:resource="http://purl.org/dc/dcmitype/StillImage" />
      </cc:Work>
    </rdf:RDF>
  </metadata>
  <g
     inkscape:label="Calque 1"
     inkscape:groupmode="layer"
     id="layer1"
     transform="translate(0,-1002.3622)">
    <path
       sodipodi:type="star"
       style="fill:#007f00;fill-opacity:1;stroke:#007f00;stroke-width:3.49867404;stroke-linecap:butt;stroke-linejoin:round;stroke-miterlimit:4;stroke-dasharray:none;stroke-opacity:1"
       id="path4143"
       sodipodi:sides="3"
       sodipodi:cx="13.083198"
       sodipodi:cy="1009.3645"
       sodipodi:r1="7.6675563"
       sodipodi:r2="3.8337784"
       sodipodi:arg1="0"
       sodipodi:arg2="1.0471976"
       inkscape:flatsided="true"
       inkscape:rounded="0"
       inkscape:randomized="0"
       d="m 20.750754,1009.3645 -11.5013345,6.6403 0,-13.2806 z"
       inkscape:transform-center-x="-1.9169293"
       inkscape:transform-center-y="-9.7467351e-005"
       transform="matrix(1.0000198,0,0,0.89395441,27.499849,125.03644)" />
    <ellipse
       style="fill:#007f00;fill-opacity:1;stroke:#007f00;stroke-width:2.80731583;stroke-linecap:butt;stroke-linejoin:round;stroke-miterlimit:4;stroke-dasharray:none;stroke-opacity:1"
       id="path4137"
       cx="1.9999999"
       cy="1027.3622"
       rx="0.59634197"
       ry="0.59634191" />
    <circle
       style="fill:#007f00;fill-opacity:1;stroke:#007f00;stroke-width:2.80731583;stroke-linecap:butt;stroke-linejoin:round;stroke-miterlimit:4;stroke-dasharray:none;stroke-opacity:1"
       id="path4137-7"
       cx="7.9999995"
       cy="1027.3622"
       r="0.59634191" />
    <circle
       style="fill:#007f00;fill-opacity:1;stroke:#007f00;stroke-width:2.80731583;stroke-linecap:butt;stroke-linejoin:round;stroke-miterlimit:4;stroke-dasharray:none;stroke-opacity:1"
       id="path4137-3"
       cx="13.999999"
       cy="1027.3622"
       r="0.59634191" />
    <circle
       style="fill:#007f00;fill-opacity:1;stroke:#007f00;stroke-width:2.80731583;stroke-linecap:butt;stroke-linejoin:round;stroke-miterlimit:4;stroke-dasharray:none;stroke-opacity:1"
       id="path4137-1"
       cx="19.999998"
       cy="1027.3622"
       r="0.59634191" />
    <circle
       style="fill:#007f00;fill-opacity:1;stroke:#007f00;stroke-width:2.80731583;stroke-linecap:butt;stroke-linejoin:round;stroke-miterlimit:4;stroke-dasharray:none;stroke-opacity:1"
       id="path4137-18"
       cx="25.999998"
       cy="1027.3622"
       r="0.59634191" />
    <circle
       style="fill:#007f00;fill-opacity:1;stroke:#007f00;stroke-width:2.80731583;stroke-linecap:butt;stroke-linejoin:round;stroke-miterlimit:4;stroke-dasharray:none;stroke-opacity:1"
       id="path4137-8"
       cx="31.999998"
       cy="1027.3622"
       r="0.59634191" />
    <path
       style="fill:#000000;stroke-width:0.0541507"
       d="M 36.380843,32.436299 C 35.876446,32.331482 35.413726,31.988796 35.180972,31.547686 L 35.035535,31.272058 V 25.013824 18.75559 l 0.163414,-0.319537 c 0.190497,-0.372493 0.545876,-0.670306 0.95915,-0.803778 0.331833,-0.10717 0.875894,-0.113093 1.160624,-0.01263 0.343863,0.121322 11.886492,6.093129 12.093836,6.256985 0.700255,0.553384 0.723612,1.609442 0.04847,2.191335 -0.151001,0.130144 -2.365791,1.303602 -6.059199,3.210332 -3.201663,1.652867 -5.909634,3.037469 -6.017713,3.076893 -0.272676,0.09947 -0.735059,0.136849 -1.00327,0.08111 z"
       id="path242"
       transform="translate(0,1002.3622)" />
    <path
       style="fill:#000000;stroke-width:0.0541507"
       d="m 31.611696,25.368114 c -0.173943,-0.173943 -0.188297,-0.211493 -0.160386,-0.419584 0.05293,-0.394646 0.430722,-0.617242 0.771653,-0.454663 0.379906,0.181164 0.444862,0.658437 0.126114,0.926646 -0.245308,0.206413 -0.496414,0.188569 -0.737381,-0.0524 z"
       id="path281"
       transform="translate(0,1002.3622)" />
    <path
       style="fill:#000000;stroke-width:0.0541507"
       d="m 31.488661,26.889762 c -0.377457,-0.104754 -0.595977,-0.238311 -0.900864,-0.550595 -0.377672,-0.386835 -0.528685,-0.770881 -0.530288,-1.348596 -0.001,-0.372476 0.0221,-0.482549 0.16505,-0.785186 0.729239,-1.543908 2.832435,-1.548112 3.556963,-0.0071 0.287912,0.612361 0.223315,1.323525 -0.172798,1.902387 -0.468001,0.683917 -1.334228,1.006636 -2.118063,0.789101 z m 0.926723,-1.178125 c 0.403825,-0.226962 0.544191,-0.817786 0.278751,-1.173313 -0.19671,-0.263472 -0.37653,-0.356146 -0.691042,-0.356146 -0.631844,0 -1.012821,0.605357 -0.738111,1.172831 0.21236,0.438677 0.722845,0.596929 1.150402,0.356628 z"
       id="path320"
       transform="translate(0,1002.3622)" />
    <path
       style="fill:#000000;stroke-width:0.0541507"
       d="m 25.456572,26.887829 c -0.932358,-0.267274 -1.556118,-1.260054 -1.384907,-2.204226 0.08332,-0.459465 0.257951,-0.779808 0.603015,-1.106156 0.871561,-0.824286 2.27574,-0.670445 2.934072,0.321454 0.439786,0.662621 0.465456,1.437454 0.06998,2.112284 -0.428029,0.730376 -1.397811,1.112956 -2.222159,0.876644 z m 0.943347,-1.166952 c 0.484165,-0.247002 0.57022,-0.897652 0.173696,-1.31329 -0.308292,-0.323152 -0.818677,-0.31676 -1.149838,0.0144 -0.676383,0.676384 0.119772,1.735777 0.976142,1.298889 z"
       id="path359"
       transform="translate(0,1002.3622)" />
    <path
       style="fill:#000000;stroke-width:0.0541507"
       d="m 25.646376,25.420513 c -0.312705,-0.263125 -0.256869,-0.731562 0.1098,-0.921175 0.230547,-0.11922 0.491461,-0.06233 0.666126,0.145249 0.204113,0.242575 0.188294,0.496689 -0.04547,0.730454 -0.233766,0.233766 -0.487879,0.249585 -0.730454,0.04547 z"
       id="path398"
       transform="translate(0,1002.3622)" />
    <path
       style="fill:#000000;stroke-width:0.0541507"
       d="m 19.49427,26.894389 c -1.000638,-0.332271 -1.564252,-1.189699 -1.430399,-2.17607 0.08916,-0.657055 0.605721,-1.307128 1.227515,-1.544795 0.362893,-0.138708 0.95066,-0.162272 1.285327,-0.05153 0.576992,0.190927 1.057379,0.65558 1.27392,1.232194 0.341236,0.908658 -0.137015,2.011263 -1.053783,2.429489 -0.38138,0.173984 -0.96313,0.22343 -1.30258,0.110713 z m 0.992285,-1.209684 c 0.458851,-0.336264 0.424365,-1.112428 -0.0622,-1.399847 -0.226086,-0.133552 -0.616214,-0.130438 -0.851188,0.0068 -0.566393,0.330792 -0.499013,1.223692 0.111741,1.480766 0.197211,0.08301 0.633883,0.03523 0.801644,-0.08771 z"
       id="path437"
       transform="translate(0,1002.3622)" />
    <path
       style="fill:#000000;stroke-width:0.0541507"
       d="m 19.667945,25.450006 c -0.324832,-0.255513 -0.286148,-0.762619 0.07232,-0.947988 0.36637,-0.189457 0.81127,0.08903 0.808744,0.506245 -0.0027,0.447754 -0.534474,0.714367 -0.88106,0.441743 z"
       id="path476"
       transform="translate(0,1002.3622)" />
    <path
       style="fill:#000000;stroke-width:0.0541507"
       d="m 13.483537,26.894389 c -0.57255,-0.190121 -1.02114,-0.574153 -1.27505,-1.091557 -0.11278,-0.229815 -0.13287,-0.34866 -0.13287,-0.786007 0,-0.472999 0.0146,-0.544929 0.17798,-0.877099 0.478091,-0.971993 1.630169,-1.370655 2.601771,-0.900311 1.190112,0.576124 1.466816,2.179833 0.539445,3.126491 -0.471495,0.4813 -1.334629,0.719964 -1.911276,0.528483 z m 0.892408,-1.159329 c 0.564694,-0.283713 0.586866,-1.171016 0.03646,-1.459283 -0.399059,-0.209004 -0.960825,-0.04574 -1.13971,0.331238 -0.27174,0.572649 0.113858,1.222724 0.72527,1.222724 0.10424,0 0.274329,-0.04261 0.377976,-0.09468 z"
       id="path515"
       transform="translate(0,1002.3622)" />
    <path
       style="fill:#000000;stroke-width:0.0541507"
       d="m 13.715039,25.474744 c -0.189419,-0.102794 -0.258578,-0.23587 -0.258578,-0.497557 0,-0.38848 0.416622,-0.645238 0.772758,-0.476241 0.217314,0.103122 0.328769,0.282824 0.322047,0.519244 -0.01219,0.428905 -0.447483,0.665517 -0.836227,0.454554 z"
       id="path554"
       transform="translate(0,1002.3622)" />
    <path
       style="fill:#000000;stroke-width:0.0541507"
       d="M 7.4612173,26.888514 C 6.9078421,26.715571 6.4598296,26.320227 6.2075801,25.782256 6.0865187,25.524068 6.0648893,25.404038 6.0649193,24.990571 c 3.01e-5,-0.41492 0.021521,-0.533205 0.1445924,-0.795826 0.1910232,-0.407624 0.5638966,-0.771437 0.9996319,-0.975342 0.4617293,-0.216069 1.0131583,-0.231175 1.5091271,-0.04134 0.4505702,0.172457 0.9379009,0.660687 1.1065084,1.108549 0.3218119,0.85481 0.017764,1.82647 -0.7274531,2.324758 -0.4928048,0.329513 -1.1255731,0.436699 -1.6361087,0.277144 z m 1.0005252,-1.203306 c 0.2529758,-0.188873 0.3498249,-0.367383 0.3541294,-0.65272 0.00536,-0.355585 -0.1407685,-0.602742 -0.4508199,-0.76248 -0.5900682,-0.304003 -1.2409938,0.144543 -1.1769531,0.811027 0.029867,0.31083 0.1555316,0.505051 0.4218241,0.651948 0.2335775,0.12885 0.6462503,0.105705 0.8518195,-0.04778 z"
       id="path593"
       transform="translate(0,1002.3622)" />
    <path
       style="fill:#000000;stroke-width:0.0541507"
       d="M 7.7224423,25.483586 C 7.4268522,25.319753 7.3596845,24.91161 7.5843692,24.644587 c 0.2740456,-0.325684 0.7616132,-0.251579 0.9255045,0.140668 0.1002709,0.239982 0.059679,0.416516 -0.1421906,0.618385 -0.1729799,0.17298 -0.4217715,0.203806 -0.6452408,0.07995 z"
       id="path632"
       transform="translate(0,1002.3622)" />
    <path
       style="fill:#000000;stroke-width:0.0541507"
       d="M 1.4891456,26.889762 C 1.111689,26.785008 0.89316837,26.651451 0.58828172,26.339167 0.21060982,25.952332 0.05959705,25.568286 0.05799361,24.990571 0.05695581,24.616656 0.07999117,24.508016 0.22630052,24.196795 0.94847751,22.660625 3.0574669,22.661502 3.7800062,24.198295 4.0679183,24.810656 4.0033221,25.52182 3.607209,26.100682 3.1392079,26.784599 2.272981,27.107318 1.4891456,26.889783 Z M 2.4158683,25.711637 C 2.8196939,25.484675 2.9600595,24.893851 2.6946197,24.538324 2.49791,24.274852 2.3180901,24.182178 2.0035777,24.182178 c -0.6390599,0 -1.01287441,0.605246 -0.7320727,1.185305 0.2102044,0.434224 0.7143444,0.585839 1.1443633,0.344154 z"
       id="path671"
       transform="translate(0,1002.3622)" />
    <path
       style="fill:#000000;stroke-width:0.0541507"
       d="M 1.6121803,25.368114 C 1.4382374,25.194171 1.4238839,25.156621 1.4517947,24.94853 c 0.052933,-0.394646 0.4307217,-0.617242 0.7716531,-0.454663 0.3799062,0.181164 0.4448616,0.658437 0.1261137,0.926646 -0.2453077,0.206413 -0.4964135,0.188569 -0.7373812,-0.0524 z"
       id="path710"
       transform="translate(0,1002.3622)" />
  </g>
</svg>
