<?xml version="1.0" encoding="UTF-8" standalone="no"?>
<svg
   xmlns:dc="http://purl.org/dc/elements/1.1/"
   xmlns:cc="http://creativecommons.org/ns#"
   xmlns:rdf="http://www.w3.org/1999/02/22-rdf-syntax-ns#"
   xmlns:svg="http://www.w3.org/2000/svg"
   xmlns="http://www.w3.org/2000/svg"
   xmlns:sodipodi="http://sodipodi.sourceforge.net/DTD/sodipodi-0.dtd"
   xmlns:inkscape="http://www.inkscape.org/namespaces/inkscape"
   version="1.0"
   width="50"
   height="44"
   id="svg1887"
   inkscape:version="0.91 r13725"
   sodipodi:docname="risque.svg">
  <metadata
     id="metadata12">
    <rdf:RDF>
      <cc:Work
         rdf:about="">
        <dc:format>image/svg+xml</dc:format>
        <dc:type
           rdf:resource="http://purl.org/dc/dcmitype/StillImage" />
        <dc:title></dc:title>
      </cc:Work>
    </rdf:RDF>
  </metadata>
  <sodipodi:namedview
     pagecolor="#ffffff"
     bordercolor="#666666"
     borderopacity="1"
     objecttolerance="10"
     gridtolerance="10"
     guidetolerance="10"
     inkscape:pageopacity="0"
     inkscape:pageshadow="2"
     inkscape:window-width="1836"
     inkscape:window-height="1058"
     id="namedview10"
     showgrid="false"
     fit-margin-top="0"
     fit-margin-left="0"
     fit-margin-right="0"
     fit-margin-bottom="0"
     inkscape:zoom="10.122221"
     inkscape:cx="14.919056"
     inkscape:cy="9.901663"
     inkscape:window-x="76"
     inkscape:window-y="-8"
     inkscape:window-maximized="1"
     inkscape:current-layer="g10" />
  <defs
     id="defs1889" />
  <g
     transform="matrix(0.33247371,0,0,0.33361186,-80.441664,-137.49205)"
     id="layer1">
    <g
       transform="matrix(1.249992,0,0,-1.249992,-53.58954,1022.106)"
       style="font-style:normal;font-variant:normal;font-weight:normal;font-stretch:normal;letter-spacing:normal;word-spacing:normal;text-anchor:start;fill:none;fill-opacity:1;stroke:#000000;stroke-linecap:butt;stroke-linejoin:miter;stroke-miterlimit:10.43299961;stroke-dasharray:none;stroke-dashoffset:0;stroke-opacity:1"
       id="g10"
       xml:space="preserve">
<path
   d="m 241.4,382.47 110.38,0 0,0 c 3.82,0 6.2,4.14 4.29,7.44 l 0,0 -55.19,95.59 0,0 c -1.9,3.31 -6.68,3.31 -8.59,0 l 0,0 -55.19,-95.59 0,0 c -1.9,-3.3 0.48,-7.44 4.3,-7.44 z"
   style="fill:#000000;fill-rule:nonzero;stroke:#ff1721;stroke-width:0;fill-opacity:1"
   id="path12"
   inkscape:connector-curvature="0" />
<polygon
   points="343.19,392.39 296.59,473.1 249.99,392.39 249.99,392.39 "
   style="fill:#ffff00;fill-rule:nonzero;stroke:#ffffff;stroke-width:0;fill-opacity:1"
   id="polygon14" />
<path
   d="m 302.25,446.5 -2.81,-32.22 0,0 c -0.19,-0.73 -0.83,-1.46 -1.52,-1.81 -0.97,-0.37 -2.34,-0.31 -3.08,0.45 -1.2,1.46 -0.85,3.52 -1.16,5.43 l 0,0 -2.77,28.52 0,0 c 0.17,2.04 1.61,4.02 3.63,4.68 3.69,1.45 7.98,-1.28 7.71,-5.05 z"
   style="fill:#000000;fill-rule:nonzero;stroke-width:0"
   id="path16"
   inkscape:connector-curvature="0" />
<path
   d="m 296.59,409.4 0.29,-0.01 0.29,-0.02 0.28,-0.03 0.28,-0.05 0.28,-0.07 0.27,-0.07 0.26,-0.09 0.26,-0.1 0.25,-0.12 0.24,-0.12 0.24,-0.14 0.23,-0.15 0.22,-0.15 0.22,-0.17 0.2,-0.18 0.2,-0.19 0.19,-0.2 0.17,-0.2 0.17,-0.22 0.16,-0.22 0.15,-0.23 0.13,-0.23 0.13,-0.25 0.11,-0.25 0.1,-0.26 0.09,-0.26 0.08,-0.27 0.06,-0.27 0.05,-0.28 0.04,-0.29 0.02,-0.28 0.01,-0.3 c 0,-3.12 -2.54,-5.67 -5.67,-5.67 -3.13,0 -5.67,2.55 -5.67,5.67 0,3.13 2.54,5.67 5.67,5.67 z"
   style="fill:#000000;fill-rule:nonzero;stroke-width:0"
   id="path18"
   inkscape:connector-curvature="0" />
</g>  </g>
</svg>
