<?xml version="1.0" encoding="UTF-8" standalone="no"?>
<svg
   xmlns:dc="http://purl.org/dc/elements/1.1/"
   xmlns:cc="http://creativecommons.org/ns#"
   xmlns:rdf="http://www.w3.org/1999/02/22-rdf-syntax-ns#"
   xmlns:svg="http://www.w3.org/2000/svg"
   xmlns="http://www.w3.org/2000/svg"
   xmlns:sodipodi="http://sodipodi.sourceforge.net/DTD/sodipodi-0.dtd"
   xmlns:inkscape="http://www.inkscape.org/namespaces/inkscape"
   version="1.0"
   width="50"
   height="50"
   id="svg1883"
   inkscape:version="0.91 r13725"
   sodipodi:docname="signalisation_sens_interdit.svg">
  <metadata
     id="metadata10">
    <rdf:RDF>
      <cc:Work
         rdf:about="">
        <dc:format>image/svg+xml</dc:format>
        <dc:type
           rdf:resource="http://purl.org/dc/dcmitype/StillImage" />
        <dc:title></dc:title>
      </cc:Work>
    </rdf:RDF>
  </metadata>
  <sodipodi:namedview
     pagecolor="#ffffff"
     bordercolor="#666666"
     borderopacity="1"
     objecttolerance="10"
     gridtolerance="10"
     guidetolerance="10"
     inkscape:pageopacity="0"
     inkscape:pageshadow="2"
     inkscape:window-width="1836"
     inkscape:window-height="1058"
     id="namedview8"
     showgrid="false"
     fit-margin-top="0"
     fit-margin-left="0"
     fit-margin-right="0"
     fit-margin-bottom="0"
     inkscape:zoom="2.220146"
     inkscape:cx="53.149623"
     inkscape:cy="52.699285"
     inkscape:window-x="76"
     inkscape:window-y="-8"
     inkscape:window-maximized="1"
     inkscape:current-layer="svg1883" />
  <defs
     id="defs1885" />
  <g
     transform="matrix(0.47036984,0,0,0.47036984,-163.14794,-186.43359)"
     id="layer1">
    <g
       transform="matrix(1.249992,0,0,-1.249992,29.35237,980.5266)"
       style="font-style:normal;font-variant:normal;font-weight:normal;font-stretch:normal;letter-spacing:normal;word-spacing:normal;text-anchor:start;fill:none;fill-opacity:1;stroke:#000000;stroke-linecap:butt;stroke-linejoin:miter;stroke-miterlimit:10.43299961;stroke-dasharray:none;stroke-dashoffset:0;stroke-opacity:1"
       id="g10"
       xml:space="preserve">
<path
   d="m 296.52,467.34 2.18,-0.05 2.16,-0.17 2.13,-0.27 2.09,-0.37 2.06,-0.48 2.02,-0.57 1.97,-0.67 1.93,-0.76 1.89,-0.85 1.83,-0.94 1.78,-1.02 1.72,-1.11 1.67,-1.19 1.61,-1.26 1.54,-1.34 1.48,-1.4 1.41,-1.48 1.33,-1.54 1.26,-1.61 1.19,-1.67 1.11,-1.72 1.02,-1.78 0.94,-1.84 0.85,-1.88 0.76,-1.93 0.67,-1.98 0.58,-2.01 0.47,-2.06 0.37,-2.09 0.28,-2.13 0.16,-2.16 0.06,-2.19 c 0,-23.46 -19.05,-42.52 -42.52,-42.52 -23.47,0 -42.52,19.06 -42.52,42.52 0,23.48 19.05,42.52 42.52,42.52 z"
   style="fill:#ff1721;fill-rule:nonzero;stroke:#ff1721;stroke-width:0"
   id="path12"
   inkscape:connector-curvature="0" />
<path
   d="m 258.47,416.32 76.1,0 0,0 c 0.62,2.77 0.93,5.6 0.93,8.51 0,2.9 -0.31,5.73 -0.93,8.5 l 0,0 -76.1,0 0,0 c -0.62,-2.77 -0.92,-5.6 -0.92,-8.5 0,-2.91 0.3,-5.74 0.92,-8.51 z"
   style="fill:#ffffff;fill-rule:nonzero;stroke:#ffffff;stroke-width:0"
   id="path14"
   inkscape:connector-curvature="0" />
</g>  </g>
</svg>
