<?xml version="1.0" encoding="UTF-8" standalone="no"?>
<!-- Created with Inkscape (http://www.inkscape.org/) -->

<svg
   xmlns:dc="http://purl.org/dc/elements/1.1/"
   xmlns:cc="http://creativecommons.org/ns#"
   xmlns:rdf="http://www.w3.org/1999/02/22-rdf-syntax-ns#"
   xmlns:svg="http://www.w3.org/2000/svg"
   xmlns="http://www.w3.org/2000/svg"
   xmlns:sodipodi="http://sodipodi.sourceforge.net/DTD/sodipodi-0.dtd"
   xmlns:inkscape="http://www.inkscape.org/namespaces/inkscape"
   id="svg4136"
   version="1.1"
   inkscape:version="0.91 r13725"
   width="50"
   height="50"
   viewBox="0 0 50 50"
   sodipodi:docname="code.svg"
   inkscape:export-filename="Q:\800_SDIS\804_MODELE_DONNEES_SDIS\GitHub\data-model-sdis\symbols\code.png"
   inkscape:export-xdpi="90"
   inkscape:export-ydpi="90">
  <metadata
     id="metadata4142">
    <rdf:RDF>
      <cc:Work
         rdf:about="">
        <dc:format>image/svg+xml</dc:format>
        <dc:type
           rdf:resource="http://purl.org/dc/dcmitype/StillImage" />
        <dc:title></dc:title>
      </cc:Work>
    </rdf:RDF>
  </metadata>
  <defs
     id="defs4140" />
  <sodipodi:namedview
     pagecolor="#ffffff"
     bordercolor="#666666"
     borderopacity="1"
     objecttolerance="10"
     gridtolerance="10"
     guidetolerance="10"
     inkscape:pageopacity="0"
     inkscape:pageshadow="2"
     inkscape:window-width="1836"
     inkscape:window-height="1058"
     id="namedview4138"
     showgrid="false"
     fit-margin-top="0"
     fit-margin-left="0"
     fit-margin-right="0"
     fit-margin-bottom="0"
     inkscape:zoom="6.2437529"
     inkscape:cx="74.088184"
     inkscape:cy="-10.396372"
     inkscape:window-x="76"
     inkscape:window-y="-8"
     inkscape:window-maximized="1"
     inkscape:current-layer="svg4136" />
  <circle
     style="fill:#000000;fill-opacity:1;stroke-width:0.13202551;stroke-miterlimit:4.80000019;stroke-dasharray:none"
     id="path5259"
     cx="25"
     cy="25"
     r="25" />
  <circle
     style="fill:#ffffff;fill-opacity:1;stroke-width:0.13202551;stroke-miterlimit:4.80000019;stroke-dasharray:none"
     id="path5263"
     cx="25"
     cy="25"
     r="22.5" />
  <path
     style="fill:#000000"
     d="m 14,33 c 0,-1.65 1.35,-3 3,-3 1.65,0 3,1.35 3,3 0,1.65 -1.35,3 -3,3 -1.65,0 -3,-1.35 -3,-3 z m 8,0 c 0,-1.65 1.35,-3 3,-3 1.65,0 3,1.35 3,3 0,1.65 -1.35,3 -3,3 -1.65,0 -3,-1.35 -3,-3 z m 8,0 c 0,-1.65 1.35,-3 3,-3 1.65,0 3,1.35 3,3 0,1.65 -1.35,3 -3,3 -1.65,0 -3,-1.35 -3,-3 z M 14,25 c 0,-1.65 1.35,-3 3,-3 1.65,0 3,1.35 3,3 0,1.65 -1.35,3 -3,3 -1.65,0 -3,-1.35 -3,-3 z m 8,0 c 0,-1.65 1.35,-3 3,-3 1.65,0 3,1.35 3,3 0,1.65 -1.35,3 -3,3 -1.65,0 -3,-1.35 -3,-3 z m 8,0 c 0,-1.65 1.35,-3 3,-3 1.65,0 3,1.35 3,3 0,1.65 -1.35,3 -3,3 -1.65,0 -3,-1.35 -3,-3 z M 14,17 c 0,-1.65 1.35,-3 3,-3 1.65,0 3,1.35 3,3 0,1.65 -1.35,3 -3,3 -1.65,0 -3,-1.35 -3,-3 z m 8,0 c 0,-1.65 1.35,-3 3,-3 1.65,0 3,1.35 3,3 0,1.65 -1.35,3 -3,3 -1.65,0 -3,-1.35 -3,-3 z m 8,0 c 0,-1.65 1.35,-3 3,-3 1.65,0 3,1.35 3,3 0,1.65 -1.35,3 -3,3 -1.65,0 -3,-1.35 -3,-3 z"
     id="path4146"
     inkscape:connector-curvature="0"
     sodipodi:nodetypes="sssssssssssssssssssssssssssssssssssssssssssss" />
</svg>
