<?xml version="1.0" encoding="UTF-8" standalone="no"?>
<!-- Created by Cary Bass http://commons.wikipedia.com/wiki/User:Bastique on January 20, 2006 -->

<svg
   xmlns:dc="http://purl.org/dc/elements/1.1/"
   xmlns:cc="http://creativecommons.org/ns#"
   xmlns:rdf="http://www.w3.org/1999/02/22-rdf-syntax-ns#"
   xmlns:svg="http://www.w3.org/2000/svg"
   xmlns="http://www.w3.org/2000/svg"
   xmlns:sodipodi="http://sodipodi.sourceforge.net/DTD/sodipodi-0.dtd"
   xmlns:inkscape="http://www.inkscape.org/namespaces/inkscape"
   version="1.1"
   width="50"
   height="44"
   id="svg3069"
   inkscape:version="0.91 r13725"
   sodipodi:docname="danger_radioactif.svg">
  <metadata
     id="metadata3085">
    <rdf:RDF>
      <cc:Work
         rdf:about="">
        <dc:format>image/svg+xml</dc:format>
        <dc:type
           rdf:resource="http://purl.org/dc/dcmitype/StillImage" />
        <dc:title />
      </cc:Work>
    </rdf:RDF>
  </metadata>
  <sodipodi:namedview
     pagecolor="#ffffff"
     bordercolor="#666666"
     borderopacity="1"
     objecttolerance="10"
     gridtolerance="10"
     guidetolerance="10"
     inkscape:pageopacity="0"
     inkscape:pageshadow="2"
     inkscape:window-width="1836"
     inkscape:window-height="1058"
     id="namedview3083"
     showgrid="false"
     inkscape:zoom="10.753411"
     inkscape:cx="24.479697"
     inkscape:cy="8.3893485"
     inkscape:window-x="76"
     inkscape:window-y="-8"
     inkscape:window-maximized="1"
     inkscape:current-layer="g4485"
     fit-margin-top="0"
     fit-margin-left="0"
     fit-margin-right="0"
     fit-margin-bottom="0" />
  <defs
     id="defs3073">
    <path
       d="M 2.8117,-1.046 A 3,3 0 0 1 0.5,2.958 l 0,1.5539 A 10.5,10.5 0 0 1 2,25.3078 l 0,0.5583 A 15,15 0 0 0 14.7975,8.5433 15,15 0 0 0 23.4007,-11.201 l -0.4835,0.2792 A 10.5,10.5 0 0 1 4.1574,-1.8229 Z m 3.4148,8.871 a 10,10 0 0 1 -12.453,0 9.5,9.5 0 0 0 -2.1756,2.7417 13.5,13.5 0 0 0 16.8042,0 A 10,10 0 0 0 6.2265,7.825 Z"
       id="p"
       transform="matrix(10,0,0,-10,260,260)"
       inkscape:connector-curvature="0" />
  </defs>
  <g
     id="g4485"
     transform="translate(0,-481)">
    <path
       d="m 2.0645256,525 45.8727664,0 0,0 c 1.587551,0 2.576654,-1.72643 1.782878,-3.10257 l 0,0 -22.936383,-39.8622 0,0 c -0.78962,-1.38031 -2.776138,-1.38031 -3.569914,0 l 0,0 -22.93638211,39.8622 0,0 C -0.51212914,523.27357 0.47697389,525 2.0645256,525 Z"
       style="font-style:normal;font-variant:normal;font-weight:normal;font-stretch:normal;letter-spacing:normal;word-spacing:normal;text-anchor:start;fill:#000000;fill-opacity:1;fill-rule:nonzero;stroke:#ff1721;stroke-width:0;stroke-linecap:butt;stroke-linejoin:miter;stroke-miterlimit:10.43299961;stroke-dasharray:none;stroke-dashoffset:0;stroke-opacity:1"
       id="path12"
       inkscape:connector-curvature="0" />
    <polygon
       transform="matrix(0.41558948,0,0,-0.41701216,-98.258779,684.49464)"
       points="296.59,473.1 249.99,392.39 249.99,392.39 343.19,392.39 "
       style="font-style:normal;font-variant:normal;font-weight:normal;font-stretch:normal;letter-spacing:normal;word-spacing:normal;text-anchor:start;fill:#ff7d00;fill-opacity:1;fill-rule:nonzero;stroke:#ffffff;stroke-width:0;stroke-linecap:butt;stroke-linejoin:miter;stroke-miterlimit:10.43299961;stroke-dasharray:none;stroke-dashoffset:0;stroke-opacity:1"
       id="polygon14" />
    <g
       id="g4192"
       transform="matrix(0.92033889,0,0,0.92033889,1.9880073,40.318442)">
      <path
         inkscape:connector-curvature="0"
         id="path4433"
         d="m 23.32847,512.93474 -3.901625,6.81513 c 3.551479,2.06722 7.594831,2.06722 11.14631,0 l -3.901625,-6.81513 c -0.02501,0.0168 -0.05002,0.0336 -0.07503,0.0504 -0.09171,0.0504 -0.191747,0.10084 -0.291789,0.14285 -0.100041,0.042 -0.200083,0.0841 -0.308462,0.11766 -0.108378,0.0336 -0.20842,0.0589 -0.316798,0.0841 -0.108379,0.0252 -0.216757,0.042 -0.333473,0.0504 -0.108378,0.008 -0.225093,0.0168 -0.341809,0.0168 -0.116715,0 -0.225093,-0.008 -0.341809,-0.0168 -0.108378,-0.008 -0.225093,-0.0252 -0.333472,-0.0504 -0.108378,-0.0252 -0.216757,-0.0504 -0.316799,-0.0841 -0.108378,-0.0336 -0.20842,-0.0672 -0.308461,-0.11766 -0.100042,-0.042 -0.200084,-0.0924 -0.291789,-0.14285 -0.03335,-0.0168 -0.05836,-0.0336 -0.08337,-0.0504 z" />
      <path
         inkscape:connector-curvature="0"
         id="path4435"
         d="m 19.426845,500.28768 c -3.55148,2.06723 -5.568988,5.59663 -5.568988,9.73109 l 7.803252,0 c 0,-0.11764 0.0083,-0.23529 0.01667,-0.34454 0.0083,-0.10924 0.03335,-0.22689 0.05002,-0.33613 0.02501,-0.10925 0.05002,-0.21849 0.08337,-0.31933 0.03335,-0.10925 0.06669,-0.21009 0.116716,-0.31092 0.04168,-0.10084 0.0917,-0.20168 0.141725,-0.29412 0.05002,-0.0924 0.108379,-0.18488 0.166736,-0.27731 0.05836,-0.0924 0.125053,-0.17647 0.191747,-0.2605 0.06669,-0.0841 0.141726,-0.15967 0.216757,-0.2353 0.07503,-0.0756 0.158399,-0.15126 0.241767,-0.21849 0.08337,-0.0672 0.166737,-0.13445 0.258441,-0.19328 0.06669,-0.042 0.133389,-0.0841 0.200084,-0.12605 l -3.918299,-6.81512 z" />
      <path
         inkscape:connector-curvature="0"
         id="path4437"
         d="m 30.573155,500.28768 -3.901625,6.81512 c 0.06669,0.042 0.133389,0.0756 0.200083,0.12605 0.09171,0.0589 0.175073,0.12606 0.258441,0.19328 0.08337,0.0672 0.1584,0.14286 0.241768,0.21849 0.07503,0.0756 0.150062,0.15967 0.216757,0.2353 0.06669,0.0841 0.133388,0.16806 0.191746,0.2605 0.05836,0.0924 0.116715,0.18487 0.166736,0.27731 0.05002,0.0924 0.100042,0.19328 0.141726,0.29412 0.04168,0.10083 0.08337,0.20167 0.116715,0.31092 0.03335,0.10924 0.05836,0.21008 0.08337,0.31933 0.02501,0.10924 0.04168,0.21849 0.05002,0.33613 0.0083,0.10925 0.01667,0.2269 0.01667,0.34454 l 7.803251,0 c -0.01667,-4.13446 -2.034181,-7.66386 -5.585661,-9.73109 z" />
      <ellipse
         ry="2.2436976"
         rx="2.2259276"
         id="circle4439"
         cy="510.01877"
         cx="24.995831" />
    </g>
  </g>
</svg>
