<?xml version="1.0" encoding="UTF-8" standalone="no"?>
<svg
   xmlns:dc="http://purl.org/dc/elements/1.1/"
   xmlns:cc="http://creativecommons.org/ns#"
   xmlns:rdf="http://www.w3.org/1999/02/22-rdf-syntax-ns#"
   xmlns:svg="http://www.w3.org/2000/svg"
   xmlns="http://www.w3.org/2000/svg"
   xmlns:sodipodi="http://sodipodi.sourceforge.net/DTD/sodipodi-0.dtd"
   xmlns:inkscape="http://www.inkscape.org/namespaces/inkscape"
   version="1.0"
   width="50"
   height="44"
   id="svg1887"
   inkscape:version="0.91 r13725"
   sodipodi:docname="danger_feu.svg"
   inkscape:export-filename="Q:\800_SDIS\804_MODELE_DONNEES_SDIS\GitHub\data-model-sdis\symbols\danger_pollution.png"
   inkscape:export-xdpi="90"
   inkscape:export-ydpi="90">
  <metadata
     id="metadata12">
    <rdf:RDF>
      <cc:Work
         rdf:about="">
        <dc:format>image/svg+xml</dc:format>
        <dc:type
           rdf:resource="http://purl.org/dc/dcmitype/StillImage" />
        <dc:title></dc:title>
      </cc:Work>
    </rdf:RDF>
  </metadata>
  <sodipodi:namedview
     pagecolor="#ffffff"
     bordercolor="#666666"
     borderopacity="1"
     objecttolerance="10"
     gridtolerance="10"
     guidetolerance="10"
     inkscape:pageopacity="0"
     inkscape:pageshadow="2"
     inkscape:window-width="1836"
     inkscape:window-height="1058"
     id="namedview10"
     showgrid="false"
     fit-margin-top="0"
     fit-margin-left="0"
     fit-margin-right="0"
     fit-margin-bottom="0"
     inkscape:zoom="7.1574911"
     inkscape:cx="48.566879"
     inkscape:cy="24.120735"
     inkscape:window-x="76"
     inkscape:window-y="-8"
     inkscape:window-maximized="1"
     inkscape:current-layer="g10" />
  <defs
     id="defs1889" />
  <g
     transform="matrix(0.33247371,0,0,0.33361186,-80.441664,-137.49205)"
     id="layer1">
    <g
       transform="matrix(1.249992,0,0,-1.249992,-53.58954,1022.106)"
       style="font-style:normal;font-variant:normal;font-weight:normal;font-stretch:normal;letter-spacing:normal;word-spacing:normal;text-anchor:start;fill:none;fill-opacity:1;stroke:#000000;stroke-linecap:butt;stroke-linejoin:miter;stroke-miterlimit:10.43299961;stroke-dasharray:none;stroke-dashoffset:0;stroke-opacity:1"
       id="g10"
       xml:space="preserve">
<path
   d="m 241.4,382.47 110.38,0 0,0 c 3.82,0 6.2,4.14 4.29,7.44 l 0,0 -55.19,95.59 0,0 c -1.9,3.31 -6.68,3.31 -8.59,0 l 0,0 -55.19,-95.59 0,0 c -1.9,-3.3 0.48,-7.44 4.3,-7.44 z"
   style="fill:#000000;fill-rule:nonzero;stroke:#ff1721;stroke-width:0;fill-opacity:1"
   id="path12"
   inkscape:connector-curvature="0" />
<polygon
   points="343.19,392.39 296.59,473.1 249.99,392.39 249.99,392.39 "
   style="fill:#ff7d00;fill-rule:nonzero;stroke:#ffffff;stroke-width:0;fill-opacity:1"
   id="polygon14" />


<path
   inkscape:connector-curvature="0"
   d="m 292.252,397.22323 c -9.23242,-2.53751 -14.48898,5.46843 -15.2585,13.69272 -0.55665,4.77193 1.60449,6.73153 -0.0655,11.33969 1.408,-0.68629 2.61978,-1.99348 3.24219,-3.1041 0.94959,4.9677 1.53899,10.26106 1.08059,14.96711 2.09545,-0.52288 3.53642,-4.18274 4.421,-5.91456 2.35761,7.05908 2.98002,13.43105 1.30977,17.22226 2.12753,-0.22878 3.37234,-2.71257 4.81331,-5.52303 1.40801,1.86281 1.17882,5.71879 1.17882,9.70576 0.22919,1.8956 0.55664,4.01896 1.73545,5.03359 1.14604,-8.92267 5.53379,-8.1697 7.98949,-18.10511 0.8841,1.96148 1.04784,4.08485 0.81862,6.76542 2.88195,-1.66671 5.40365,-7.90805 6.74467,-16.83072 1.27704,0.65362 1.86645,3.17 2.35762,6.01245 2.78387,-3.95496 3.76653,-8.88878 2.35761,-14.77135 -0.72037,-1.6667 -1.1788,-3.36576 -0.94958,-5.26136 1.17879,0.71898 1.57173,2.45092 2.25954,3.88908 0.49115,-2.12337 0.98234,-4.64016 0.55666,-6.46987 -1.40802,-10.58862 -13.06498,-15.36055 -20.03955,-12.15667 4.94533,3.138 10.05288,4.34651 11.32976,14.34592 -0.72039,-0.68629 -1.99738,-1.30723 -2.71787,-1.536 1.08056,3.39965 1.40801,6.43787 0.13097,8.13771 -1.34251,-3.52955 -3.20824,-5.62091 -4.64922,-6.01246 1.70271,2.81046 2.02944,7.28873 -2.91401,14.57558 0.94959,-8.69302 0,-12.71198 -2.25955,-15.72009 -1.408,1.66672 -2.91401,4.08486 -3.63449,7.38662 -1.40801,-3.52954 -1.539,-7.77815 0.19647,-12.94164 -1.76822,0.49022 -3.17618,2.18926 -5.04342,12.81175 -2.35761,-4.84723 0.84451,-9.70011 -4.51908,-7.22285 1.40803,-8.46523 5.00947,-12.90963 9.52855,-14.31392 z"
   style="font-style:normal;font-variant:normal;font-weight:normal;font-stretch:normal;letter-spacing:normal;word-spacing:normal;text-anchor:start;fill:#000000;fill-opacity:1;fill-rule:evenodd;stroke:none;stroke-width:0;stroke-linecap:butt;stroke-linejoin:miter;stroke-miterlimit:10.43299961;stroke-dasharray:none;stroke-dashoffset:0;stroke-opacity:1"
   id="path23326" /></g>  </g>
</svg>
