<?xml version="1.0" encoding="UTF-8" standalone="no"?>
<svg
   xmlns:dc="http://purl.org/dc/elements/1.1/"
   xmlns:cc="http://creativecommons.org/ns#"
   xmlns:rdf="http://www.w3.org/1999/02/22-rdf-syntax-ns#"
   xmlns:svg="http://www.w3.org/2000/svg"
   xmlns="http://www.w3.org/2000/svg"
   xmlns:sodipodi="http://sodipodi.sourceforge.net/DTD/sodipodi-0.dtd"
   xmlns:inkscape="http://www.inkscape.org/namespaces/inkscape"
   version="1.0"
   width="50"
   height="44"
   id="svg1887"
   inkscape:version="0.91 r13725"
   sodipodi:docname="danger_pollution.svg"
   inkscape:export-filename="Q:\800_SDIS\804_MODELE_DONNEES_SDIS\GitHub\data-model-sdis\symbols\danger_autre.png"
   inkscape:export-xdpi="90"
   inkscape:export-ydpi="90">
  <metadata
     id="metadata12">
    <rdf:RDF>
      <cc:Work
         rdf:about="">
        <dc:format>image/svg+xml</dc:format>
        <dc:type
           rdf:resource="http://purl.org/dc/dcmitype/StillImage" />
        <dc:title></dc:title>
      </cc:Work>
    </rdf:RDF>
  </metadata>
  <sodipodi:namedview
     pagecolor="#ffffff"
     bordercolor="#666666"
     borderopacity="1"
     objecttolerance="10"
     gridtolerance="10"
     guidetolerance="10"
     inkscape:pageopacity="0"
     inkscape:pageshadow="2"
     inkscape:window-width="1836"
     inkscape:window-height="1058"
     id="namedview10"
     showgrid="false"
     fit-margin-top="0"
     fit-margin-left="0"
     fit-margin-right="0"
     fit-margin-bottom="0"
     inkscape:zoom="7.1574911"
     inkscape:cx="11.687535"
     inkscape:cy="-6.953883"
     inkscape:window-x="76"
     inkscape:window-y="-8"
     inkscape:window-maximized="1"
     inkscape:current-layer="g10" />
  <defs
     id="defs1889" />
  <g
     transform="matrix(0.33247371,0,0,0.33361186,-80.441664,-137.49205)"
     id="layer1">
    <g
       transform="matrix(1.249992,0,0,-1.249992,-53.58954,1022.106)"
       style="font-style:normal;font-variant:normal;font-weight:normal;font-stretch:normal;letter-spacing:normal;word-spacing:normal;text-anchor:start;fill:none;fill-opacity:1;stroke:#000000;stroke-linecap:butt;stroke-linejoin:miter;stroke-miterlimit:10.43299961;stroke-dasharray:none;stroke-dashoffset:0;stroke-opacity:1"
       id="g10"
       xml:space="preserve">
<path
   d="m 241.4,382.47 110.38,0 0,0 c 3.82,0 6.2,4.14 4.29,7.44 l 0,0 -55.19,95.59 0,0 c -1.9,3.31 -6.68,3.31 -8.59,0 l 0,0 -55.19,-95.59 0,0 c -1.9,-3.3 0.48,-7.44 4.3,-7.44 z"
   style="fill:#000000;fill-rule:nonzero;stroke:#ff1721;stroke-width:0;fill-opacity:1"
   id="path12"
   inkscape:connector-curvature="0" />
<polygon
   points="343.19,392.39 296.59,473.1 249.99,392.39 249.99,392.39 "
   style="fill:#ff7d00;fill-rule:nonzero;stroke:#ffffff;stroke-width:0;fill-opacity:1"
   id="polygon14" />


<path
   inkscape:connector-curvature="0"
   d="m 284.87813,442.87842 -1.54522,-2.76534 -2.5043,2.44626 2.07804,-3.82896 0.79923,-5.15841 -5.3283,2.8717 5.3283,-3.66941 1.17225,-6.91336 -6.92681,3.35033 -2.39772,-2.55263 2.7707,1.16995 7.35305,-4.9457 0,-5.74342 -13.64043,0 0,-0.79771 13.64043,0 0,-8.50874 -5.54142,-2.76536 6.18083,0.79771 2.34446,-2.55263 2.39773,2.76534 5.75458,0.58498 -4.95533,3.93529 0.15984,5.74341 15.2922,0 -2.18459,-2.92488 -3.35684,0.95725 -1.59848,-6.32841 0.37296,-0.58496 c -2.17395,-2.16972 -4.35856,-3.38228 -7.93916,-4.36075 l 1.59848,-0.58495 -11.8821,-5.95614 -0.79926,0.79769 -10.12376,-1.96765 51.79106,0 0,2.33992 -4.9553,0.21271 1.5452,2.76536 -6.50051,0.79769 7.13991,3.3503 -4.15608,0.42546 2.77072,0.58497 -1.22551,3.19077 c 0.78857,0.9785 2.8027,3.52053 3.7831,7.28562 l 1.38535,0 0,0.79771 -1.17223,0 0.21314,1.38266 -5.16845,-1.59539 0.37297,3.4035 c -0.9804,0.40419 -3.37817,0.17015 -5.16846,-0.42542 -1.98211,-0.80836 -3.75111,-2.76535 -3.94294,-2.76535 l -16.09146,0 0.58612,5.95612 3.41009,3.35031 1.75834,0.21273 5.96771,5.7434 -6.12754,-4.73298 -1.81162,0.37228 -3.19698,-2.60582 0,7.55152 0.63938,2.87171 3.72981,3.45669 -4.10278,-2.9249 -0.53284,6.48793 -1.22552,-9.7319 -2.45101,-6.91335 -4.58235,12.92268 0.79924,3.72257 z m 31.17054,-23.34589 -0.63939,-4.14803 5.38157,1.75493 c -0.40497,-1.38268 -0.80991,-2.74407 -1.59851,-3.9353 -3.15431,-8.31724 -15.65455,-7.56218 -18.80887,-12.49722 -1.59847,0.99973 -2.97322,1.98892 -4.95532,2.39309 11.10409,3.7438 10.49681,16.43253 20.62052,16.43253 z m 1.38535,-5.37116 c 0,-0.40419 0.3943,-0.74453 0.79925,-0.74452 1.52306,0.45731 -0.29818,2.32865 -0.79925,0.74452 z m -14.86595,-1.59539 c 0,0 1.75835,-0.1808 1.97147,-0.37227 l -3.19696,-3.93531 -0.15985,0.15955 1.38537,4.14803 z m 14.43971,-4.30756 0.42624,-1.80811 -5.54143,-1.16995 c 1.79032,0.78705 3.51669,1.97828 5.11519,2.97806 z"
   style="font-style:normal;font-variant:normal;font-weight:normal;font-stretch:normal;letter-spacing:normal;word-spacing:normal;text-anchor:start;fill:#000000;fill-opacity:1;fill-rule:evenodd;stroke:none;stroke-width:0;stroke-linecap:butt;stroke-linejoin:miter;stroke-miterlimit:10.43299961;stroke-dasharray:none;stroke-dashoffset:0;stroke-opacity:1"
   id="path24470" /></g>  </g>
</svg>
