<?xml version="1.0" encoding="UTF-8" standalone="no"?>
<svg
   xmlns:dc="http://purl.org/dc/elements/1.1/"
   xmlns:cc="http://creativecommons.org/ns#"
   xmlns:rdf="http://www.w3.org/1999/02/22-rdf-syntax-ns#"
   xmlns:svg="http://www.w3.org/2000/svg"
   xmlns="http://www.w3.org/2000/svg"
   xmlns:sodipodi="http://sodipodi.sourceforge.net/DTD/sodipodi-0.dtd"
   xmlns:inkscape="http://www.inkscape.org/namespaces/inkscape"
   version="1.0"
   width="50"
   height="44"
   id="svg1887"
   inkscape:version="0.91 r13725"
   sodipodi:docname="danger_toxique.svg"
   inkscape:export-filename="Q:\800_SDIS\804_MODELE_DONNEES_SDIS\GitHub\data-model-sdis\symbols\danger_feu.png"
   inkscape:export-xdpi="90"
   inkscape:export-ydpi="90">
  <metadata
     id="metadata12">
    <rdf:RDF>
      <cc:Work
         rdf:about="">
        <dc:format>image/svg+xml</dc:format>
        <dc:type
           rdf:resource="http://purl.org/dc/dcmitype/StillImage" />
        <dc:title />
      </cc:Work>
    </rdf:RDF>
  </metadata>
  <sodipodi:namedview
     pagecolor="#ffffff"
     bordercolor="#666666"
     borderopacity="1"
     objecttolerance="10"
     gridtolerance="10"
     guidetolerance="10"
     inkscape:pageopacity="0"
     inkscape:pageshadow="2"
     inkscape:window-width="1836"
     inkscape:window-height="1058"
     id="namedview10"
     showgrid="false"
     fit-margin-top="0"
     fit-margin-left="0"
     fit-margin-right="0"
     fit-margin-bottom="0"
     inkscape:zoom="14.314982"
     inkscape:cx="15.361504"
     inkscape:cy="17.640301"
     inkscape:window-x="76"
     inkscape:window-y="-8"
     inkscape:window-maximized="1"
     inkscape:current-layer="g10" />
  <defs
     id="defs1889" />
  <g
     transform="matrix(0.33247371,0,0,0.33361186,-80.441664,-137.49205)"
     id="layer1">
    <g
       transform="matrix(1.249992,0,0,-1.249992,-53.58954,1022.106)"
       style="font-style:normal;font-variant:normal;font-weight:normal;font-stretch:normal;letter-spacing:normal;word-spacing:normal;text-anchor:start;fill:none;fill-opacity:1;stroke:#000000;stroke-linecap:butt;stroke-linejoin:miter;stroke-miterlimit:10.43299961;stroke-dasharray:none;stroke-dashoffset:0;stroke-opacity:1"
       id="g10"
       xml:space="preserve">
<path
   d="m 241.4,382.47 110.38,0 0,0 c 3.82,0 6.2,4.14 4.29,7.44 l 0,0 -55.19,95.59 0,0 c -1.9,3.31 -6.68,3.31 -8.59,0 l 0,0 -55.19,-95.59 0,0 c -1.9,-3.3 0.48,-7.44 4.3,-7.44 z"
   style="fill:#000000;fill-rule:nonzero;stroke:#ff1721;stroke-width:0;fill-opacity:1"
   id="path12"
   inkscape:connector-curvature="0" />
<polygon
   points="343.19,392.39 296.59,473.1 249.99,392.39 249.99,392.39 "
   style="fill:#ff7d00;fill-rule:nonzero;stroke:#ffffff;stroke-width:0;fill-opacity:1"
   id="polygon14" />


<path
   inkscape:connector-curvature="0"
   d="m 296.67722,448.82858 c -8.01158,0.24903 -15.74604,-4.02576 -18.01923,-12.51986 -1.24747,-4.01184 -0.24951,-7.01389 1.5247,-10.0297 0.24951,-0.74703 0.72077,-1.46642 0.97027,-2.21345 -0.2495,-0.99606 -0.51288,-2.28262 -0.76238,-3.52769 -0.24951,-1.49406 0.29105,-2.73916 1.03956,-3.7352 0.24951,-0.24904 0.47126,-0.74703 0.97027,-1.52175 0.99799,-0.74703 1.99599,-1.96446 2.49497,-4.70359 -1.74646,0.498 -3.72862,1.23125 -5.47507,1.72927 -1.77419,0.49799 -3.77018,1.25892 -5.26716,2.00593 -0.74851,0.24904 -1.30291,0.47034 -1.80194,0.96839 -0.499,0.24903 -0.95642,0.24903 -1.45538,0 -0.99797,-0.74703 -0.51288,-1.70159 -0.76239,-2.69765 -0.2495,-0.49799 -0.97029,-1.05138 -0.97026,-1.79843 0,-0.24903 -0.0416,-0.47034 0.20788,-0.96839 0.499,-0.49799 1.49698,-0.52572 2.49497,-0.27668 0.99798,0.49799 1.81576,0.49799 2.56429,0 3.99192,-0.99604 8.01162,-2.21346 11.7818,-3.45852 0,-0.74703 0.20796,-0.99606 0.20788,-1.52175 l -0.20788,-0.76086 c -3.02167,-1.02372 -6.05726,-1.97827 -9.07891,-2.97433 -0.49901,-0.49799 -1.2198,-0.8024 -2.21775,-0.55338 -0.74852,0.24904 -1.48316,0.0415 -2.00984,-0.20747 -0.49901,-0.74703 -0.24951,-1.23124 0,-2.00594 0.52668,-0.49799 0.76238,-1.0514 0.76238,-1.79844 0.24951,-0.99603 0.98413,-1.20356 1.73262,-1.45257 0.49893,0 1.02571,0.47034 1.5247,0.96837 0.74851,0.49799 1.98214,1.52178 2.70289,1.52176 l 8.52448,3.25102 c 1.99595,-3.01582 5.55827,-4.49608 9.07891,-4.49608 3.24345,0 6.27901,1.49409 8.52448,4.01188 l 5.96021,-2.28262 c 1.24747,-0.74703 2.56431,-1.02374 3.81177,-1.52176 0.99799,-0.498 1.7049,-1.23123 2.70288,-1.72927 1.24748,0 2.03758,0.48425 2.28706,1.72927 -0.24951,0.49799 -0.0416,1.02374 0.48513,1.52176 0.24951,0.49799 0.55443,0.7471 0.55443,1.52175 -0.2495,0.74703 -0.77624,0.76085 -1.52471,0.76085 -1.24748,-0.49799 -2.79991,-0.49799 -4.29688,0 -2.27318,0.74703 -4.47713,1.74311 -6.72256,2.49014 l -1.03959,0.48416 c 0,0.24904 4e-5,0.48417 0,0.76086 0.49901,1.24504 0.76239,2.25497 1.03959,3.251 2.24544,0.99606 4.24147,1.97829 6.51464,2.97433 1.24749,0.52573 3.00783,0.53948 6.02951,-0.48416 0.74851,-0.24904 1.46927,-0.26287 2.21775,0.48416 0,0.24904 2e-5,0.5119 0,0.76086 0.24951,0.49799 0.0139,0.99607 -0.48512,1.24506 -0.24951,0.498 -0.73465,1.00988 -0.48514,2.00594 -0.24951,0.74703 -0.0416,1.23124 -1.03957,1.72927 -0.49901,0.49799 -1.23365,0.49799 -1.73261,0 -0.72077,-0.498 -1.49703,-0.74703 -2.49498,-1.24507 -2.24547,-0.74703 -4.54642,-1.70161 -6.79187,-2.69765 -0.49901,-0.24904 -1.02568,-0.23521 -1.52471,-0.48417 0,0.49799 0.27726,0.71938 0.27726,0.96839 0.2495,0.74703 1.01186,2.4763 2.00985,2.97433 1.24745,1.52175 2.0098,3.251 0.76238,5.74115 0,0.24903 -0.0277,0.51189 -0.27725,0.76085 2.52267,4.75887 3.7702,9.55939 2.7722,14.31828 -1.0257,6.75103 -8.30274,12.4784 -18.08853,12.7274 z m 0,-0.96839 c 9.28676,-0.24903 16.0787,-5.28466 17.32619,-12.03565 0.77621,-5.50592 -0.74851,-9.76689 -2.49497,-13.00404 -0.49901,1.49408 -0.51288,2.97433 -0.76239,4.21939 0,2.01976 0.99799,4.2609 1.24749,6.50202 0,1.52175 -0.2495,2.2826 -1.24749,3.5277 -0.2495,0.49799 -0.48513,0.49799 -0.48513,0 0.74851,-1.74307 1.26131,-3.23718 0.76239,-4.98027 -1.74647,-4.75888 -1.02573,-6.77872 -0.27726,-9.26884 0.74852,-2.26876 2.00985,-4.73126 -0.48513,-6.22534 -3.02165,-1.77076 -4.04738,-3.02967 -4.29691,-6.01782 -0.2495,0.24904 -0.76238,0.48425 -0.76238,0.48417 -0.49893,0.24903 -0.95641,-0.0277 -1.4554,-0.27669 -0.24951,-0.24903 -0.54056,-0.7332 -0.76239,-0.48417 -0.49901,0 -0.79007,-0.0277 -1.03957,-0.27668 -0.2495,-0.24904 -0.26338,-0.48425 -0.76239,-0.48417 -0.2495,0.24903 -0.74851,0.49799 -1.24749,0 -0.2495,0 -0.19408,-0.48417 -0.69301,-0.48417 -0.49901,0 -0.76239,0.22131 -0.76239,-0.27669 -0.49901,0 -0.79006,-0.24903 -1.03957,0 -0.2495,0 -0.72076,0.24896 -0.97026,0 -0.24951,0 -0.76231,-3e-5 -0.76239,0 -0.27725,0.498 -0.51289,0.52573 -0.76239,0.27669 -0.2495,0 -0.72076,-0.24896 -0.97027,0 -0.2495,0.24904 -0.51288,0.20748 -0.76238,0.20748 -0.24951,0 -0.51288,0.0276 -0.76239,0.27669 -0.2495,0.24903 -0.51288,0.48417 -0.76238,0.48417 -0.49901,0 -0.51289,0.0277 -0.76239,0.27668 -0.52668,0.27669 -0.96683,-0.10335 -1.24749,-0.27668 -0.28062,-0.17333 -0.76239,-0.20748 -0.76239,-0.20748 -0.2495,3.01581 -1.21978,4.74509 -3.46524,5.74114 -3.02166,0.74703 -4.54637,2.72532 -4.29689,5.46447 0.49901,1.77074 1.02568,3.07119 1.52471,4.56524 0.49901,1.49408 0.49893,3.23721 0,5.25695 -0.24951,1.49409 -0.54056,2.9605 0.20788,4.98029 0,0.49799 -0.69302,0.49799 -0.69302,0 -0.499,-1.24506 -0.77621,-2.75302 -0.27725,-4.4961 0.24951,-2.24109 0.22176,-4.24703 -0.27725,-5.74115 -2.24499,3.51382 -3.25684,6.75106 -2.00937,10.5139 2.27316,8.74308 10.78386,11.50996 17.04896,11.75896 z m 7.90074,-20.05943 c -1.18251,-0.048 -2.48458,-0.45475 -3.39594,-0.96838 -1.58345,-0.98795 -0.58601,-3.83338 -0.48513,-4.01188 0.544,-0.96491 1.01188,-1.74306 2.28705,-2.49014 1.24748,-1.74306 3.21575,-1.02372 4.71272,0.96839 0.74852,1.52173 1.28907,3.00203 0.76239,4.49608 0,1.24506 -0.70689,2.00593 -2.70289,2.00593 -0.37421,0 -0.78401,0.016 -1.17816,0 z m -13.0293,-0.41503 c -0.72076,0.0311 -1.5673,-0.0991 -2.25438,-0.35758 -2.12616,-0.44422 -3.06596,-2.12845 -3.08208,-2.68592 -0.0329,-1.13267 0.23563,-2.51777 1.73262,-4.01188 1.49696,-1.24504 2.77218,-1.50789 4.01967,-0.76086 1.49699,1.49406 2.45339,3.22334 2.70289,4.2194 0.2495,1.24507 0.499,2.04747 -1.24749,3.0435 -0.49901,0.37355 -1.15046,0.52228 -1.87124,0.55337 z m 3.67315,-7.81626 c -0.73287,-1.26236 -2.0514,-3.80437 -1.80192,-5.04944 0.24951,-1.24505 1.51087,-1.93677 3.25732,-0.69172 1.0257,-0.99605 3.25732,-1.25888 3.25732,0.48417 0,1.77074 -0.63238,3.89257 -1.4554,5.46447 -1.01481,1.35455 -2.48127,1.07929 -3.25732,-0.20748 z m 14.55401,-4.49608 c -0.49901,-1.49407 -1.27523,-1.99211 -1.52472,-5.25695 0,-2.49012 -0.24951,-4.52377 -1.24748,-6.2945 -3.49293,-7.74705 -13.5283,-9.21348 -18.29645,-2.21346 -0.99799,1.74307 -1.99599,4.27473 -2.49497,7.26289 -0.49901,3.01581 -1.05343,4.48225 -1.80192,6.22534 2.27318,-0.49799 3.27118,-1.97829 4.01968,-5.74115 0,-0.99605 0.22175,-2.78065 0.97027,-3.52768 0.2495,0 0.76238,-0.48417 0.76238,-0.48417 0.24951,-0.24903 0.23563,-0.48417 0.76239,-0.48417 0.47126,0 0.76238,-0.0553 0.76238,-0.27668 0.24951,-0.27669 0.51289,-0.48425 0.76239,-0.48417 0.49901,0 0.70352,-0.23521 0.76239,-0.48417 0.2518,-0.23727 0.47754,-0.14079 0.76238,0 0.3083,0.19037 0.84079,-0.0511 0.97027,-0.27668 0.44014,-0.3663 1.08455,-0.30771 1.52471,0 0.2495,0.24903 0.48513,0 0.76238,0 0.2495,-0.24904 0.74851,-0.498 1.24749,0 0.24951,0.49799 0.51288,0.24903 0.76239,0 0.2495,0 0.47126,0.23512 0.97027,0.48416 0.2495,0 0.51288,0.0415 0.76238,-0.20748 0.49901,0 0.99799,-0.0415 1.24748,0.48417 0.27725,0.22138 0.51289,0.76085 0.76239,0.76085 0.49901,0 0.74851,-0.2213 1.24748,0.27669 0,0.24904 0.23563,0.69172 0.48514,0.69172 0.2495,0 0.51288,0.0277 0.76238,0.27669 0,0.49799 0.23571,0.5119 0.48514,0.76086 0.499,0 0.51288,0.26286 0.76238,0.76085 l 0,1.93677 c 0.24951,2.01977 0.0277,4.06723 3.04943,5.81031 z m 11.22736,-0.0692 c 0.47946,0.0934 0.85247,-0.22138 1.03958,-0.96838 -0.24951,-1.24509 0.26337,-1.74311 0.76238,-2.49014 0.24943,-0.49799 0.22176,-0.71937 -0.27726,-0.96838 -0.2495,-0.27669 -0.98412,-0.0138 -2.00983,0.48416 -1.99596,0.49807 -3.25732,0.77471 -4.50481,0.27669 l -6.99978,-3.32018 c 0,0.498 0,0.74703 0,1.24507 0,0.24904 0.20788,0.5119 0.20788,0.76086 l 9.77198,4.28856 c 0.49901,2e-5 1.02573,0.23521 1.52471,0.48416 0.19401,0.12452 0.32531,0.17639 0.48513,0.20748 z m -49.62219,-0.55338 c 0.18711,0.0623 0.36035,-0.0138 0.48514,-0.13834 0.99798,-0.74703 2.02371,-1.02372 2.7722,-1.52175 3.49296,-0.99605 7.04137,-2.22728 10.53431,-3.251 0,-0.74703 0.23563,-1.46641 0.48514,-2.21345 l -8.24728,2.21348 c -1.24751,0.498 -2.50882,0.76086 -3.25731,1.03755 -0.74852,0.24904 -1.28909,0.498 -2.28708,0 -0.2495,0 -0.74851,0 -1.24748,0 -0.74851,-0.27669 -0.45739,-0.0138 -0.20788,0.48417 -4e-5,0.49807 0.23563,0.5119 0.48513,0.76085 0.24943,0.498 0.2495,0.71938 0,0.96839 -3e-5,0.24904 0,0.78854 0,1.03755 0.12471,0.37348 0.29802,0.56025 0.48514,0.62251 z m 32.81897,-4.2558 c 0.19056,0.12108 0.29266,0.31198 0.51657,0.10557 0.22397,-0.20641 0.0277,-0.26286 0.27725,-0.76085 -0.24951,-0.498 -0.23563,-0.76086 -0.48514,-0.76086 -0.2495,-0.24903 -0.55442,-0.24903 -0.55442,0 3e-5,0.498 -0.12434,0.65712 0,1.03755 0.12432,0.38043 0.0552,0.25759 0.24574,0.3786 z m -13.76017,-0.37859 c 0.27725,0 0.23563,-0.55338 0.48513,-0.55338 0,-0.49799 0.0381,-0.75742 -0.20788,-0.96839 -0.24606,-0.21099 -0.66703,-0.003 -0.76239,0.27669 -0.0953,0.28013 -1e-5,0.71937 0,0.96839 0,0.24903 0.23563,0.27669 0.48514,0.27669 z m 12.33625,-0.41504 c 0.0628,-0.008 0.14556,-0.0761 0.20788,-0.13834 0.22176,-0.24904 0.20788,-0.44269 0.48514,-0.69172 0,-0.24904 -0.0797,-0.84389 -0.48514,-1.03755 -0.40541,-0.19365 -0.76239,0.0136 -0.76239,0.48416 0,0.47057 0,0.78856 0,1.03755 0.20789,0.18678 0.36602,0.3692 0.55443,0.34583 z m -11.08877,-0.34582 c 0.22007,0.12971 0.48514,-0.23521 0.48514,-0.48416 0.2495,-0.24904 0,-1.03756 0,-1.03756 10e-6,-0.24903 -0.23563,-0.20747 -0.48514,-0.20747 0,0 -0.13858,-0.13316 -0.27725,0.20747 -0.13859,0.34063 0.0572,1.39205 0.27725,1.52175 z m 9.77197,-0.48416 c 0.0346,-0.41328 0.27725,-0.99606 0.27725,-1.24507 -0.49901,-0.24904 -0.76239,-0.55338 -0.76239,-0.55338 -0.499,0 -0.48513,0.0277 -0.48513,0.27669 -0.20819,0.6264 0,1.77315 0,1.93677 0.22643,0.068 0.85708,0.29846 0.97027,-0.41503 z m 4.01967,0.20747 c 0.24951,0 0.48514,-3e-5 0.48514,0 0,-0.49799 0.27725,-0.47034 0.27725,-0.96839 -0.2495,0 -0.76239,-0.48416 -0.76239,-0.48416 l 0,1.45258 z m -12.05902,-0.20747 c 0.24951,0 0.27726,-0.55338 0.27726,-0.55338 0.2495,-0.498 0.2495,-0.99609 0,-1.24507 -0.24951,0 -0.51289,0 -0.76239,0 0.0177,0.56499 -0.16657,1.55237 0.48513,1.79843 z m 5.71566,-0.16425 c 0.33466,-0.24903 0.31389,-0.38913 0.31389,-0.38913 0.2495,-0.74703 0.2495,-1.20357 0,-1.45259 3e-5,0 0.0416,-0.27668 -0.20788,-0.27668 -0.24951,0 -0.51289,-0.0138 -0.76239,0.48416 0,0.24896 -0.0953,0.77126 0,1.24507 0.0953,0.47385 0.32171,0.63817 0.65638,0.38913 z M 294.806,408.2947 c 0.12471,0.0311 0.29105,0 0.41584,0 0.2495,-0.24903 0.48513,-0.26286 0.48513,-0.76085 0.22175,-0.24903 0.20788,-0.71937 0.20788,-0.96838 0,-0.24904 -0.39507,-0.30259 -0.69301,-0.27669 -0.43853,0.0865 -0.81317,0.45735 -0.76239,0.8992 0.005,0.46308 -0.12387,0.8547 0.34655,1.10674 z m 1.94051,-0.27668 c 0.34701,0.16645 0.7919,-0.0591 0.97027,-0.48417 0,-0.24903 0,-0.99605 0,-1.24507 -0.2495,-0.24903 -1.03957,-0.24903 -1.03957,0 -0.36862,0.575 -0.27771,1.5628 0.0693,1.72927 z m -6.80363,-0.4637 c 0.10233,-0.37248 0.0118,-0.53244 0.0118,-0.7814 -10e-6,-0.24904 -0.27725,-0.20748 -0.27725,-0.20748 -0.30561,0.24377 -0.34654,0.79546 -0.27725,1.03755 0.0693,0.24209 0.41048,0.21527 0.5427,-0.0486 z m 14.77368,-0.0205 c 0.20788,-0.0936 0.2495,-0.74703 0,-1.24507 0,-0.24903 -0.20788,0 -0.20788,0 -0.24951,0.49799 -0.30324,0.75742 -0.27726,1.03755 0.026,0.28012 0.27726,0.30106 0.48514,0.20748 z m -13.79164,-0.55338 c 0.10103,-0.0584 0.27725,-0.24346 0.27725,-0.69172 0,-0.74703 0,-0.71938 0,-0.96839 -0.52407,-0.0728 -0.65116,0.29479 -0.76238,0.76086 0,0.24903 -0.0809,0.53259 0,0.69172 0.0809,0.15912 0.3841,0.26592 0.48513,0.20748 z m 12.82137,-0.20748 c 0.0606,-0.37867 -0.0277,-0.74703 -0.27725,-1.24506 0,-0.24904 0,-0.48417 -0.27725,-0.48417 -0.22176,0 -0.20789,0.0277 -0.20789,0.27669 -0.2495,0.74703 -0.0953,0.93898 0,1.24506 0.0953,0.3061 0.70168,0.58623 0.76239,0.20748 z m -11.29667,-0.48417 c 0.31014,-0.16424 0.48513,-0.74702 0.48513,-1.24506 0,0 -0.20788,-0.20748 -0.20788,-0.48417 -0.2495,0 -0.30492,0 -0.55443,0.27669 -0.2495,0.24903 -0.18189,0.4721 -0.20788,0.69172 0.0758,0.64925 0.36786,0.84301 0.48514,0.76086 z m 9.49475,-0.20747 c 3e-5,-0.74703 0,-1.30044 0,-1.79843 -0.24943,-0.27669 -0.76239,0.0553 -0.76239,0.27669 -0.2495,0.27668 -0.29657,0.6607 -0.15299,0.96838 0.24597,0.49326 0.52844,0.55338 0.91537,0.55338 z m -8.24726,-0.13835 c 0.32217,-0.0843 0.67653,-0.23475 0.97027,-0.41503 0,-0.49799 -0.20789,-1.02376 -0.20789,-1.24507 0,0 -0.27725,-0.27668 -0.27725,-0.27668 -0.2495,0 -0.48513,0.33199 -0.48513,0.55337 -2e-5,0.4611 0,0.92227 0,1.3834 z m 6.51464,-0.62251 c 0,-0.24903 -0.27725,-0.81623 -0.27725,-1.31423 0,-0.22138 -0.20789,-0.20748 -0.20789,-0.20748 -0.2495,-3e-5 -0.43316,-0.14529 -0.48513,0.20748 -0.052,0.35277 -0.18512,1.46728 0.0693,1.72927 0.2544,0.26194 0.6993,-0.0772 0.90095,-0.41504 z m -2.56428,0.20748 c 0.0936,0.0311 0.22176,0 0.34655,0 0.2495,0 0.48513,-0.23521 0.48513,-0.48417 0,-0.52572 -0.23563,-1.02372 -0.48513,-1.24506 0,-4e-5 -0.30492,0 -0.55443,0 -0.19102,0.57331 -0.1093,0.73473 0,1.52174 0,0.12452 0.11437,0.17639 0.20788,0.20748 z m -1.66332,-0.0692 c 0.39859,-0.24399 0.41209,-0.97115 0.20788,-1.45257 -0.2495,-0.22138 -0.48513,-0.48417 -0.76238,-0.20748 -0.0233,0.42054 -0.24368,1.96343 0.55443,1.66008 z m -9.07891,-2.14427 c 1e-5,-0.24904 0.30492,-0.5119 0.55443,-0.76086 0,-0.49799 0.20788,-0.99606 0.20788,-1.24507 l -8.03935,-3.04349 c -0.99797,-0.49807 -1.95439,-0.95455 -2.70288,-1.45259 -0.49901,-0.24903 -1.02574,-0.53955 -1.52471,-1.03757 0,0 -0.26337,0.0277 -0.76238,0.27669 10e-6,0.99602 -0.26338,1.99211 -0.76239,2.49013 -0.2495,0.77471 0.0554,1.03755 0.55443,1.03755 1.24745,-0.49799 1.99598,-0.0415 2.49497,0.20748 l 9.97988,3.52769 z m 20.5835,-0.76086 8.03936,-3.251 c 1.49697,-0.498 2.50883,-0.80239 4.5048,-0.27669 0.49894,0 0.70689,-0.23521 0.20789,-0.76086 -0.49901,-0.49807 -0.73464,-0.98222 -0.48514,-1.72926 -0.47125,-0.74703 -1.02574,-0.96839 -1.5247,-0.96839 -0.49901,0.24904 -0.95641,0.71938 -1.4554,0.96839 -1.24748,0.74703 -2.49497,1.27273 -4.01968,1.52175 -1.74646,0.7747 -3.25733,1.2589 -4.78204,2.00593 l -1.5247,0.76086 c 0.2495,0.74703 0.76239,1.23125 1.03957,1.72926 z"
   id="path6"
   style="stroke-width:0.15304337" /><path
   style="fill:#000000;fill-opacity:1;stroke-width:0.3171401;stroke-miterlimit:4;stroke-dasharray:none"
   d="m 316.86785,395.56255 c -0.77763,0.54123 -1.6103,0.9769 -2.27126,1.18839 -0.57394,0.18364 -1.4062,0.49899 -1.84946,0.70078 -0.44326,0.20179 -2.18995,0.90746 -3.88153,1.56815 l -3.07561,1.20127 -0.94815,-0.86584 c -1.3094,-1.19574 -2.76072,-2.0597 -4.40344,-2.62135 -1.3011,-0.44485 -1.51652,-0.47535 -3.29698,-0.46673 -1.62549,0.008 -2.09838,0.0668 -3.22371,0.40174 -2.17101,0.64618 -4.16694,1.97002 -5.36995,3.56174 l -0.36469,0.48252 -4.42233,-1.68729 c -2.43229,-0.92801 -4.50562,-1.68729 -4.60741,-1.68729 -0.23997,0 -2.07448,-1.21792 -2.78331,-1.84783 -0.61704,-0.54833 -0.9368,-0.59622 -1.66902,-0.24994 -0.56226,0.2659 -0.84679,0.72265 -0.97817,1.57027 -0.0484,0.31226 -0.25819,0.8125 -0.46621,1.11163 -0.52971,0.76178 -0.61808,1.44465 -0.24609,1.9018 0.28281,0.34756 0.35294,0.36019 1.79223,0.32304 1.35234,-0.0349 1.55647,-0.004 2.1006,0.30984 0.33149,0.19168 2.59459,0.99233 5.02911,1.77921 5.02708,1.62486 4.71307,1.40797 4.51395,3.11774 l -0.0983,0.84386 -0.75772,0.24744 c -1.67321,0.5464 -7.18114,2.19376 -9.11008,2.72472 -1.1283,0.31057 -2.3317,0.64763 -2.67422,0.74903 -0.50802,0.1504 -0.73751,0.14843 -1.24553,-0.0107 -0.34252,-0.10729 -1.07294,-0.22503 -1.62317,-0.26165 -0.80927,-0.0539 -1.05424,-0.018 -1.28216,0.18753 -0.44922,0.40515 -0.37295,1.27581 0.17885,2.04155 0.34011,0.47199 0.47638,0.8411 0.52097,1.41118 0.0884,1.13017 0.16591,1.40446 0.48748,1.72494 0.38473,0.3834 0.9863,0.36432 1.61075,-0.0511 0.28064,-0.18671 0.77401,-0.44614 1.09638,-0.57653 0.32237,-0.13039 1.17959,-0.49543 1.90492,-0.81118 1.27443,-0.55481 8.98389,-3.09192 9.39533,-3.09192 0.25108,0 0.25132,-0.0107 -0.0243,1.04943 -0.36943,1.42082 -0.88442,2.41213 -1.71413,3.29955 -0.42948,0.45935 -1.01764,1.19999 -1.30703,1.64587 -1.40102,2.15862 -1.51719,2.85509 -0.93661,5.61526 0.22414,1.0656 0.35342,2.03669 0.29969,2.25106 -0.052,0.20736 -0.58372,1.36613 -1.18166,2.57505 -1.44364,2.91875 -1.73214,4.04954 -1.63456,6.40666 0.1596,3.85531 1.98458,7.70072 5.01284,10.56258 1.54252,1.45773 3.27673,2.58854 5.11577,3.33575 7.24131,2.94218 16.66522,1.29239 22.12349,-3.87302 3.07599,-2.91095 4.51011,-6.68878 4.30043,-11.3284 -0.13016,-2.88024 -0.84255,-5.55829 -2.29471,-8.62636 l -0.73609,-1.55519 0.45206,-1.33386 c 0.35226,-1.03936 0.43898,-1.51411 0.39281,-2.15023 -0.0784,-1.08074 -0.67375,-2.26381 -1.57999,-3.13993 -0.39785,-0.38462 -0.91489,-1.06503 -1.14898,-1.512 -0.51656,-0.98635 -0.99263,-2.30751 -0.87406,-2.42567 0.13734,-0.13688 1.35333,0.27226 3.42161,1.15127 1.05275,0.4474 2.72329,1.11004 3.71231,1.47252 0.98903,0.36249 2.43027,0.99066 3.20277,1.39595 1.51773,0.79629 1.66775,0.80781 2.48107,0.19062 0.48826,-0.37052 0.69991,-0.93969 0.6516,-1.75231 -0.0347,-0.58359 0.3213,-1.4562 0.79524,-1.94933 0.31562,-0.32838 0.34786,-0.45903 0.26392,-1.06933 -0.17244,-1.25382 -0.83305,-1.36721 -3.62507,-0.6222 -1.81377,0.48399 -3.2587,0.51235 -4.40105,0.0864 -0.44229,-0.16492 -2.13533,-0.91341 -3.76231,-1.66333 l -2.95814,-1.36348 -0.50495,-1.5859 c -0.64075,-2.01236 -0.71033,-2.43031 -0.44165,-2.65253 0.21872,-0.1809 5.1215,-2.07916 7.27343,-2.81613 1.6908,-0.57904 2.80123,-0.67353 4.16205,-0.35415 0.94338,0.2214 1.14518,0.22871 1.51117,0.0547 0.64714,-0.30765 0.63745,-0.9098 -0.0302,-1.87707 -0.41763,-0.60507 -0.54828,-0.94646 -0.57513,-1.50274 -0.0463,-0.96013 -0.61962,-1.57014 -1.5554,-1.65499 -0.58524,-0.0531 -0.74667,0.0158 -1.86831,0.79642 z m 2.17856,0.0959 c 0.60467,0.31163 0.87087,0.7519 0.78259,1.29437 -0.0586,0.36034 0.0225,0.58075 0.37811,1.02656 0.24903,0.31224 0.45278,0.65397 0.45278,0.75942 0,0.33591 -0.44282,0.46675 -1.08179,0.31963 -0.33183,-0.0764 -1.13302,-0.11285 -1.78042,-0.081 -1.10612,0.0545 -1.44623,0.16621 -5.6415,1.85393 -2.45543,0.9878 -4.53036,1.821 -4.61095,1.85154 -0.15494,0.0587 -0.99262,-1.12935 -1.15436,-1.63724 -0.0786,-0.24687 0.0274,-0.36593 0.60274,-0.67704 1.22068,-0.66003 5.34643,-2.32363 6.47373,-2.61037 1.26273,-0.32118 2.85211,-1.05436 3.8951,-1.79681 0.81185,-0.57791 1.06288,-0.62308 1.68397,-0.303 z m -43.10698,0.35766 c 1.04472,0.83017 4.24156,2.3197 8.04626,3.74904 l 3.84204,1.44338 -0.0834,0.58412 c -0.0459,0.32128 -0.20874,0.76219 -0.36189,0.97981 -0.15316,0.21763 -0.27848,0.46406 -0.27848,0.54763 0,0.0836 -0.044,0.15194 -0.0978,0.15194 -0.13517,0 -9.80202,-3.42617 -10.52429,-3.73006 -0.4463,-0.18778 -0.80517,-0.22346 -1.51683,-0.1508 -1.42168,0.14516 -1.64212,-0.18887 -0.97295,-1.47427 0.20302,-0.38997 0.40972,-1.05066 0.45934,-1.46819 0.0878,-0.73866 0.20282,-0.8727 0.90188,-1.05091 0.0249,-0.007 0.28864,0.18189 0.58613,0.41831 z m 23.58021,0.96207 c 2.67004,0.61095 5.07861,2.36368 6.7173,4.88819 1.46698,2.25998 1.91208,3.69884 2.11194,6.82718 0.076,1.18917 0.21356,2.52154 0.30574,2.96081 0.18635,0.88794 1.13206,3.22118 1.37344,3.38852 0.0876,0.0608 0.0213,0.10826 -0.15296,0.10953 -0.74524,0.005 -2.39328,-1.63932 -2.76196,-2.75643 -0.30852,-0.9348 -0.51403,-2.49524 -0.51747,-3.92897 -0.002,-1.08943 -0.0391,-1.2475 -0.36257,-1.56985 -0.19782,-0.19715 -0.42501,-0.35844 -0.50487,-0.35844 -0.0799,0 -0.23171,-0.18072 -0.33744,-0.40159 -0.1206,-0.25193 -0.32837,-0.41764 -0.5575,-0.44466 -0.22646,-0.0267 -0.49103,-0.23479 -0.69629,-0.54762 -0.27737,-0.42276 -0.41763,-0.50456 -0.86514,-0.50456 -0.44357,0 -0.62085,-0.101 -1.04597,-0.59597 -0.50995,-0.59373 -0.51496,-0.59565 -1.33285,-0.51068 -0.5695,0.0592 -0.93072,0.023 -1.17927,-0.11807 -0.26844,-0.15237 -0.44366,-0.1646 -0.69871,-0.0488 -0.28144,0.1278 -0.39172,0.0997 -0.63651,-0.16215 -0.35328,-0.37791 -0.38818,-0.38075 -1.08921,-0.0888 -0.50151,0.20883 -0.59094,0.20722 -1.06977,-0.0192 -0.50562,-0.23911 -0.54223,-0.23637 -1.13223,0.0848 -0.45963,0.25022 -0.73571,0.30838 -1.12156,0.23624 -0.40569,-0.0759 -0.56722,-0.0347 -0.7789,0.1984 -0.14688,0.16175 -0.41019,0.29409 -0.58513,0.29409 -0.17495,0 -0.47295,0.16429 -0.66223,0.36508 -0.20962,0.22237 -0.50601,0.36508 -0.75821,0.36508 -0.22773,0 -0.53179,0.11734 -0.67569,0.26074 -0.1439,0.14342 -0.50179,0.4433 -0.79532,0.66642 -0.62557,0.47552 -0.94724,1.28105 -1.0811,2.70728 -0.20069,2.13844 -0.95454,4.34382 -1.82097,5.32726 -0.48418,0.54957 -1.47544,1.13398 -2.23082,1.3152 l -0.40181,0.0964 0.31184,-0.76916 c 0.63193,-1.55867 1.04307,-3.01913 1.53206,-5.44221 1.39501,-6.91256 3.52484,-10.11671 7.68251,-11.55768 1.89333,-0.65619 3.74371,-0.7409 5.81763,-0.26636 z m -3.11923,7.27727 c 0.26852,0.74781 -0.36223,1.68171 -0.85856,1.2712 -0.2914,-0.24101 -0.33162,-1.84694 -0.0489,-1.95289 0.2792,-0.10464 0.75291,0.2512 0.90748,0.68169 z m 1.9136,-0.2923 c 0.29578,0.44988 0.33227,1.39265 0.0605,1.56407 -0.4087,0.25781 -0.97371,0.15552 -1.0675,-0.19327 -0.11928,-0.44357 -0.11581,-1.49781 0.005,-1.61853 0.21999,-0.21924 0.78678,-0.0791 1.00163,0.24773 l 0,0 z m 1.64837,-0.16254 c 0.0803,0.10039 0.19219,0.50052 0.24867,0.88916 0.0821,0.56472 0.0518,0.76268 -0.15076,0.98572 -0.33455,0.36842 -0.74359,0.35404 -0.95168,-0.0335 -0.15588,-0.29027 -0.0858,-1.60371 0.1017,-1.90606 0.1122,-0.18091 0.58842,-0.13999 0.75207,0.0646 z m -5.40319,0.43809 c 0.0667,0.18072 0.15904,0.56986 0.2051,0.86476 0.0804,0.51456 0.0604,0.54548 -0.49429,0.76667 -0.31791,0.12677 -0.60966,0.23048 -0.64833,0.23048 -0.13733,0 -0.0678,-1.63021 0.0814,-1.90802 0.20763,-0.38663 0.7062,-0.35978 0.85613,0.0461 z m 7.49107,0.91271 c 0,0.99789 -0.026,1.09524 -0.29306,1.09524 -0.44941,0 -0.8792,-0.51952 -0.8792,-1.06275 0,-0.62629 0.36205,-1.12774 0.81424,-1.12774 0.34785,0 0.35802,0.0311 0.35802,1.09525 z m -9.08392,-0.36244 c 0.14976,0.36032 0.14533,0.54016 -0.0243,0.98572 -0.26509,0.69624 -0.78338,0.82734 -1.00229,0.25353 -0.22951,-0.60161 -0.17596,-0.934 0.21291,-1.32155 0.46616,-0.46457 0.59166,-0.45188 0.81368,0.0823 z m 10.77277,0.98095 c 0.33165,1.13697 0.0246,1.64524 -0.66007,1.09269 -0.26758,-0.21593 -0.3316,-0.4076 -0.32048,-0.95951 0.0163,-0.81052 0.0926,-0.97074 0.46221,-0.97074 0.20742,0 0.3334,0.20356 0.51834,0.83756 z m -12.38572,0.15675 c 0,0.80194 -0.25665,1.25237 -0.66909,1.17429 -0.21734,-0.0412 -0.29381,-0.19668 -0.32816,-0.66744 -0.057,-0.78077 0.16837,-1.2091 0.63607,-1.2091 0.33381,0 0.36118,0.0532 0.36118,0.70225 z m 6.21564,0.11656 c 0.1738,0.0664 0.23179,0.29662 0.23179,0.92 0,0.919 -0.16295,1.18185 -0.73267,1.18185 -0.53431,0 -0.73266,-0.25609 -0.73266,-0.94593 0,-0.96894 0.49922,-1.43675 1.23354,-1.15592 z m -1.81003,0.20856 c 0.32341,0.17249 0.37018,0.7255 0.12148,1.43648 -0.17265,0.49356 -0.51204,0.74887 -0.99552,0.74887 -0.66956,0 -0.83825,-1.38312 -0.24125,-1.97807 0.39044,-0.38911 0.67515,-0.44203 1.11529,-0.20728 z m 3.81164,0.16218 c 0.26789,0.49887 0.0871,1.73652 -0.29922,2.04827 -0.23578,0.19028 -0.39728,0.22447 -0.58566,0.124 -0.55201,-0.29442 -0.52148,-1.87553 0.0438,-2.27015 0.42393,-0.29592 0.64327,-0.27039 0.84105,0.0979 z m 5.34565,0.0341 c 0.0481,0.1911 0.0659,0.5361 0.0394,0.76668 -0.0387,0.33705 -0.11989,0.41924 -0.41441,0.41924 -0.43967,0 -0.55816,-0.45742 -0.2873,-1.10912 0.21345,-0.51356 0.54267,-0.55174 0.66228,-0.0768 z m -14.85504,0.30973 c 0.2183,0.47745 -0.0429,1.09524 -0.46311,1.09524 -0.24529,0 -0.29621,-0.0954 -0.29621,-0.55493 0,-0.86462 0.46106,-1.1927 0.75932,-0.54031 z m 3.83509,0.78274 c -0.0141,0.51528 -0.10492,0.86458 -0.26588,1.02223 -0.22691,0.22224 -0.26495,0.21466 -0.52814,-0.10527 -0.19566,-0.23785 -0.28361,-0.56888 -0.28361,-1.06755 l 0,-0.7228 0.5495,0.0453 0.5495,0.0453 -0.0214,0.78274 z m 7.59774,-0.52647 c 0.38785,0.32089 0.39249,0.34403 0.21827,1.08874 -0.21525,0.92016 -0.37729,1.10196 -0.9264,1.03943 -0.41313,-0.0471 -0.42162,-0.0663 -0.46465,-1.05566 -0.0241,-0.55426 -0.01,-1.09641 0.032,-1.20477 0.11595,-0.30113 0.69854,-0.23358 1.14074,0.13226 z m -15.94411,1.29238 c -0.13282,0.59396 -0.26006,1.15172 -0.28276,1.23946 -0.0227,0.0877 -0.43185,0.26876 -0.90922,0.40225 -0.47737,0.13348 -2.63657,0.80098 -4.79823,1.48333 -2.16166,0.68234 -4.00738,1.24062 -4.10162,1.24062 -0.23411,0 -2.80714,1.25625 -3.32342,1.62262 -0.52532,0.37279 -1.01482,0.30941 -1.25342,-0.16229 -0.22122,-0.43732 -0.24806,-1.40671 -0.0425,-1.53334 0.22253,-0.13706 0.17929,-0.30326 -0.19654,-0.75547 -0.18869,-0.22704 -0.37903,-0.54422 -0.42297,-0.70486 -0.0439,-0.16063 -0.1273,-0.40678 -0.18523,-0.54699 -0.0956,-0.23141 -0.0195,-0.24745 0.82594,-0.17388 0.51219,0.0446 1.20698,0.14266 1.54396,0.21799 0.5386,0.12039 0.87533,0.0549 2.78412,-0.54153 2.22321,-0.69467 10.49188,-2.96726 10.56355,-2.90333 0.0219,0.0195 -0.0689,0.52145 -0.2017,1.11542 z m 6.6533,-1.00834 c 0.21232,0.2116 0.22925,0.98005 0.0329,1.49464 -0.20425,0.53539 -0.66728,0.48992 -0.86848,-0.0853 -0.31686,-0.90583 -0.13471,-1.58456 0.42525,-1.58456 0.12896,0 0.31359,0.0789 0.4103,0.17523 z m 13.6994,0.15285 c 0.25867,0.18044 0.48464,0.33164 0.50217,0.33599 0.0175,0.004 -0.043,0.25101 -0.13448,0.54812 -0.14066,0.45673 -0.23049,0.5402 -0.58137,0.5402 -0.40955,0 -0.41501,-0.0115 -0.41501,-0.8762 0,-0.4819 0.0356,-0.87619 0.0792,-0.87619 0.0436,0 0.29083,0.14763 0.54949,0.32808 z m -2.82878,-0.0372 c 0.14943,0.0797 0.34706,0.3725 0.43917,0.65065 0.14752,0.44545 0.12879,0.55788 -0.15709,0.94323 -0.41302,0.55674 -0.61083,0.62813 -0.99582,0.35939 -0.5761,-0.40214 -0.33655,-2.09817 0.29634,-2.09817 0.0801,0 0.26796,0.0652 0.4174,0.1449 z m 9.62211,2.17883 c 2.05179,0.9744 3.94832,1.78202 4.31153,1.83602 0.76889,0.11433 3.09275,-0.33252 4.09196,-0.78684 0.8411,-0.38244 1.38678,-0.38451 1.76588,-0.007 0.34654,0.34535 0.29307,0.64302 -0.267,1.48647 -0.24588,0.37026 -0.39607,0.85481 -0.46213,1.49089 -0.11574,1.11437 -0.45769,1.60752 -1.03346,1.49038 -0.8681,-0.17661 -2.85431,-0.9683 -7.28266,-2.9028 -3.68434,-1.60948 -4.73294,-2.12618 -4.79693,-2.36369 -0.087,-0.32293 -0.1189,-1.98334 -0.0381,-1.98334 0.0263,0 1.6962,0.78281 3.7109,1.7396 z m -21.74782,-1.23915 c 0.17338,0.25234 0.11928,1.01128 -0.0918,1.28844 -0.24266,0.31857 -0.90654,0.33447 -1.02587,0.0245 -0.39207,-1.01823 0.55545,-2.13132 1.11771,-1.313 z m 13.58267,0.22412 c 0.65218,0.34786 0.69461,1.78143 0.0555,1.87528 -0.48716,0.0715 -0.77769,-0.34899 -0.77769,-1.12563 0,-0.90219 0.14805,-1.05587 0.7222,-0.74965 z m -5.90595,0.21912 c 0.0384,0.0997 0.21623,0.15337 0.39522,0.11927 0.20968,-0.04 0.52543,0.0964 0.88777,0.38338 0.43853,0.34731 0.62125,0.41396 0.82986,0.30269 0.44447,-0.23706 0.96994,-0.16334 1.19,0.16697 0.14794,0.22205 0.38249,0.31954 0.82919,0.34466 0.39043,0.022 0.74392,0.14801 0.9472,0.33778 0.54613,0.50982 1.08411,0.64554 1.56878,0.39577 0.23214,-0.11964 0.46311,-0.2837 0.51327,-0.36459 0.1839,-0.29653 0.36707,-0.13463 0.37056,0.32753 0.002,0.26104 0.0689,0.75662 0.14864,1.10129 0.38963,1.68336 1.31368,2.81958 3.3791,4.15497 1.39185,0.8999 1.63952,1.14023 1.95806,1.89999 0.35595,0.84901 0.27041,1.70604 -0.37093,3.71611 -1.44697,4.5351 -1.5025,6.06865 -0.35049,9.67983 0.53145,1.66594 0.51745,2.77722 -0.0565,4.48251 -0.23835,0.70822 -0.41533,1.3066 -0.3933,1.32974 0.1,0.10494 1.00623,-1.49533 1.20076,-2.1203 0.27686,-0.88941 0.18181,-1.91517 -0.39595,-4.27313 -0.70193,-2.86468 -0.74142,-3.37105 -0.42569,-5.45777 0.15199,-1.0045 0.36672,-2.04412 0.47717,-2.31025 l 0.20082,-0.48387 0.51775,1.02222 c 1.8006,3.55506 2.631,7.94477 2.18433,11.54698 -0.77522,6.25181 -5.95045,10.98212 -13.67091,12.4956 -6.11114,1.19799 -13.25754,-0.79682 -17.2767,-4.82255 -1.91537,-1.9185 -2.96369,-3.75633 -3.8079,-6.67567 -0.56043,-1.93801 -0.64211,-4.00839 -0.22412,-5.68078 0.23922,-0.95714 1.69861,-4.17037 2.18874,-4.81908 0.21607,-0.28598 0.22394,-0.28352 0.37765,0.11773 0.32658,0.85252 0.45813,2.95555 0.28684,4.58553 -0.30611,2.91299 -0.31303,3.5229 -0.052,4.58429 0.23229,0.94466 0.42179,1.28967 0.60699,1.1051 0.043,-0.0429 -0.0354,-0.52587 -0.1742,-1.07336 -0.28462,-1.12257 -0.22753,-2.90394 0.14656,-4.57323 0.11699,-0.52207 0.21503,-1.56509 0.21786,-2.31782 0.005,-1.30236 -0.0418,-1.50974 -0.96477,-4.2844 -0.90937,-2.73381 -0.96384,-2.97197 -0.87258,-3.81555 0.24064,-2.22441 1.45961,-3.49096 4.37268,-4.54333 1.61121,-0.58206 2.89936,-2.35979 3.21901,-4.44243 0.0817,-0.53241 0.16988,-1.04656 0.19593,-1.14256 0.0494,-0.18189 0.37525,-0.11671 1.34799,0.2696 0.38097,0.1513 0.53844,0.15359 0.76731,0.0112 0.15838,-0.0986 0.41184,-0.17922 0.56325,-0.17922 0.15141,0 0.45577,-0.14148 0.67636,-0.3144 0.49885,-0.39107 1.36347,-0.60686 2.45414,-0.61254 0.47817,-0.002 0.86446,-0.0744 0.90035,-0.16761 0.0925,-0.24009 3.02358,-0.24592 3.11588,-0.006 l 0,10e-6 z"
   id="path4184"
   inkscape:connector-curvature="0" /><path
   style="fill:#000000;fill-opacity:1;stroke-width:0.3171401;stroke-miterlimit:4;stroke-dasharray:none"
   d="m 289.70674,419.45989 c -0.79511,0.29789 -1.75743,0.99613 -2.23768,1.62361 -0.95013,1.24144 -1.34401,2.95717 -0.88289,3.84583 0.67669,1.30412 2.66387,2.24474 4.7761,2.26075 1.01189,0.008 1.18187,-0.0357 1.96193,-0.50081 1.13378,-0.67596 1.43992,-1.16262 1.33082,-2.11555 -0.16196,-1.41456 -1.98765,-4.43898 -2.99207,-4.95661 -0.62234,-0.32072 -1.36127,-0.38011 -1.95621,-0.15722 z"
   id="path4186"
   inkscape:connector-curvature="0" /><path
   style="fill:#000000;fill-opacity:1;stroke-width:0.3171401;stroke-miterlimit:4;stroke-dasharray:none"
   d="m 303.88192,419.70618 c -0.16119,0.0889 -0.46345,0.33337 -0.67169,0.54318 -0.20825,0.20981 -0.62571,0.56925 -0.92771,0.79875 -0.81497,0.61931 -1.55561,1.86563 -1.73723,2.92336 -0.31348,1.82568 0.17037,2.637 1.94457,3.2607 0.92441,0.32497 1.35504,0.38754 2.71085,0.39392 2.70641,0.0127 3.19145,-0.43732 3.21099,-2.97935 0.009,-1.21634 -0.0405,-1.50429 -0.40458,-2.33652 -0.88923,-2.03272 -2.88144,-3.29031 -4.1252,-2.60404 z"
   id="path4188"
   inkscape:connector-curvature="0" /><path
   style="fill:#000000;fill-opacity:1;stroke-width:0.3171401;stroke-miterlimit:4;stroke-dasharray:none"
   d="m 294.61874,413.36233 c -0.54989,0.0998 -1.06803,0.85463 -1.0625,1.54794 0.006,0.77197 0.78652,2.82792 1.57617,4.15256 1.31857,2.21192 2.84936,1.91931 3.80829,-0.72796 0.81806,-2.25836 1.04928,-4.23131 0.55916,-4.77119 -0.39823,-0.43867 -1.43177,-0.41451 -2.25161,0.0526 -0.61946,0.35296 -0.63065,0.35386 -1.09899,0.0884 -0.54614,-0.3096 -1.06781,-0.42627 -1.53052,-0.34234 z"
   id="path4190"
   inkscape:connector-curvature="0" /><path
   style="fill:#000000;fill-opacity:1;stroke-width:0.00652157;stroke-miterlimit:4.80000019;stroke-dasharray:none"
   d="m 18.697956,33.141589 c -0.92371,-0.251937 -2.043713,-0.572621 -2.488895,-0.712631 -0.445181,-0.140009 -0.821018,-0.242966 -0.835191,-0.228792 -0.01417,0.01417 -0.05471,0.0018 -0.09009,-0.02761 -0.04654,-0.03862 -0.159714,-0.03168 -0.409467,0.02513 -0.189833,0.04318 -0.456328,0.0785 -0.59221,0.0785 l -0.247059,0 0.07722,-0.184818 c 0.04247,-0.101649 0.130251,-0.247839 0.195064,-0.324865 0.122889,-0.146045 0.153067,-0.302454 0.06845,-0.354752 -0.07784,-0.04811 -0.05806,-0.484306 0.0275,-0.606463 0.103451,-0.147696 0.182411,-0.13896 0.509399,0.05636 0.401737,0.23997 1.082279,0.557341 1.34016,0.624985 0.122256,0.03207 0.878019,0.265085 1.679474,0.517816 0.801454,0.25273 1.646131,0.517032 1.877058,0.587337 l 0.419869,0.127827 0.08357,0.431541 c 0.04596,0.237348 0.07931,0.435357 0.07409,0.440021 -0.0052,0.0047 -0.765243,-0.197651 -1.688953,-0.449588 z"
   id="path4143"
   inkscape:connector-curvature="0"
   transform="matrix(2.4062207,0,0,-2.3980116,236.4323,487.9825)" /><path
   style="fill:#000000;fill-opacity:1;stroke-width:0.00230572;stroke-miterlimit:4.80000019;stroke-dasharray:none"
   d="m 16.047318,38.383238 c -0.05481,-0.02112 -0.108895,-0.04768 -0.12018,-0.05903 -0.01128,-0.01135 -0.02759,-0.0978 -0.03624,-0.192107 -0.03023,-0.329735 -0.112661,-0.584611 -0.251643,-0.778063 -0.120277,-0.167418 -0.119398,-0.374509 0.0018,-0.425152 0.07953,-0.03323 0.134279,-0.03136 0.296347,0.01009 0.165131,0.04223 0.412177,0.0462 0.555306,0.0089 0.05491,-0.0143 0.148196,-0.05042 0.207295,-0.08025 0.08969,-0.04527 4.206999,-1.517919 4.243891,-1.517919 0.0067,0 0.01691,0.0151 0.02277,0.03356 0.0059,0.01845 0.05344,0.08151 0.10573,0.140113 0.05229,0.05861 0.09891,0.124061 0.10358,0.145453 0.0047,0.02139 0.01607,0.08212 0.02532,0.134948 0.0092,0.05283 0.02856,0.145802 0.0429,0.206606 l 0.02608,0.110553 -0.05743,0.02399 c -0.03158,0.0132 -0.783524,0.29984 -1.670977,0.636985 -1.528801,0.580793 -1.634649,0.623788 -2.015228,0.81858 -0.220923,0.113075 -0.492055,0.259193 -0.602516,0.324707 -0.110461,0.06551 -0.262483,0.155294 -0.337827,0.199511 -0.07534,0.04422 -0.19843,0.129512 -0.273525,0.189545 -0.0751,0.06003 -0.143122,0.108746 -0.151171,0.108251 -0.008,-4.96e-4 -0.05948,-0.01818 -0.114298,-0.0393 z"
   id="path4145"
   inkscape:connector-curvature="0"
   transform="matrix(2.4062207,0,0,-2.3980116,236.4323,487.9825)" /><path
   style="fill:#000000;fill-opacity:1;stroke-width:0.00652157;stroke-miterlimit:4.80000019;stroke-dasharray:none"
   d="m 33.425697,38.673412 c -0.417968,-0.280533 -0.669975,-0.409188 -1.076756,-0.549705 -0.292091,-0.100899 -0.64649,-0.240446 -0.787552,-0.310103 -0.314012,-0.155064 -2.633001,-1.05634 -2.717967,-1.05634 -0.0336,0 -0.18259,0.123911 -0.331086,0.275357 -0.526695,0.537162 -1.382865,1.018575 -2.196447,1.235034 -0.534278,0.142149 -1.680368,0.130967 -2.272228,-0.02217 -0.520238,-0.134605 -1.127825,-0.406249 -1.537154,-0.68724 -0.276107,-0.189538 -0.814628,-0.708495 -0.962606,-0.927635 -0.06771,-0.100276 -0.09608,-0.09152 -1.723622,0.532172 -0.910126,0.348769 -1.782206,0.676729 -1.937955,0.7288 -0.310882,0.103936 -0.582689,0.274221 -1.083508,0.678812 -0.431667,0.348725 -0.556209,0.38312 -0.864038,0.238626 -0.341852,-0.160465 -0.454294,-0.304082 -0.517062,-0.660421 -0.03501,-0.198753 -0.10073,-0.36355 -0.189558,-0.475326 -0.182894,-0.230141 -0.277017,-0.576409 -0.21931,-0.806812 0.06695,-0.267315 0.298658,-0.38567 0.711541,-0.363455 0.771854,0.04153 0.813764,0.0376 1.016278,-0.09521 0.107804,-0.0707 1.010607,-0.394799 2.032833,-0.729771 1.451898,-0.475771 1.850602,-0.624448 1.894492,-0.706458 0.06813,-0.127301 0.01488,-0.715681 -0.0696,-0.769 -0.148715,-0.09387 -2.606215,-0.847067 -3.903584,-1.196415 -0.49298,-0.132747 -0.97897,-0.276642 -1.079977,-0.319767 -0.239355,-0.102192 -0.356744,-0.09891 -0.730182,0.02038 -0.346617,0.110731 -0.865111,0.130127 -1.0634,0.03978 -0.1658,-0.07554 -0.270299,-0.278768 -0.270299,-0.525661 0,-0.14591 0.05143,-0.271419 0.20614,-0.503107 0.188209,-0.281845 0.209013,-0.344851 0.23915,-0.724303 0.02387,-0.300547 0.06043,-0.45254 0.132046,-0.549017 0.238802,-0.321687 0.651473,-0.346531 0.978646,-0.05892 0.20874,0.183501 1.746954,0.781406 3.309551,1.286425 0.896542,0.289755 1.638512,0.519693 1.648821,0.510972 0.04388,-0.03712 -0.262673,-0.904782 -0.39958,-1.130948 -0.08223,-0.135839 -0.274692,-0.382007 -0.427695,-0.547038 -0.362612,-0.391118 -0.838509,-1.14839 -0.95313,-1.516669 -0.124772,-0.400892 -0.114491,-0.664867 0.05749,-1.476196 0.0815,-0.384499 0.148189,-0.763073 0.148189,-0.841276 0,-0.07859 -0.196583,-0.544557 -0.43955,-1.041865 -0.241752,-0.494823 -0.495785,-1.079167 -0.564516,-1.298541 -0.274787,-0.877046 -0.284007,-1.63629 -0.03175,-2.61431 0.355982,-1.380158 0.898054,-2.355932 1.825905,-3.286778 1.832087,-1.838001 4.573202,-2.545237 7.545825,-1.946902 1.779112,0.358103 3.224332,1.127559 4.336808,2.308979 1.077386,1.144157 1.561869,2.434803 1.570705,4.184306 0.0021,0.421103 -0.02455,0.943468 -0.05927,1.160812 -0.151224,0.946471 -0.536435,2.125135 -0.988169,3.023588 l -0.201354,0.400475 0.176116,0.535499 c 0.1565,0.475852 0.173858,0.579515 0.15584,0.930669 -0.02722,0.530544 -0.224847,0.936406 -0.683119,1.402931 -0.324124,0.329963 -0.68445,0.939922 -0.766919,1.29824 l -0.03051,0.132564 0.239165,-0.0657 c 0.131541,-0.03614 0.561476,-0.203673 0.955411,-0.372304 0.393936,-0.16863 1.060785,-0.435965 1.481889,-0.594077 0.902249,-0.33877 1.43159,-0.577432 1.704171,-0.768356 0.269844,-0.189006 0.483059,-0.184306 0.797679,0.01758 0.302021,0.193806 0.362524,0.315963 0.409546,0.826877 0.04012,0.435899 0.09038,0.564657 0.311729,0.798638 0.137171,0.144997 0.148143,0.18298 0.141488,0.489833 -0.008,0.368654 -0.03435,0.419871 -0.274735,0.533943 -0.242004,0.114838 -0.530819,0.09665 -1.107736,-0.06976 -0.712127,-0.205409 -1.307402,-0.279451 -1.683853,-0.209443 -0.189186,0.03518 -0.797858,0.286604 -1.691102,0.698536 l -1.395533,0.643568 -0.21011,0.656335 c -0.11556,0.360984 -0.210603,0.724485 -0.211206,0.807782 -0.0013,0.176778 -0.133501,0.11434 1.774675,0.838046 0.691411,0.262228 1.422944,0.519191 1.625629,0.57103 0.449945,0.115076 0.937211,0.120717 1.29329,0.01497 0.513639,-0.152534 0.937282,0.01315 0.936002,0.366061 -5.38e-4,0.148691 -0.189814,0.560915 -0.345116,0.751631 -0.06952,0.08538 -0.105652,0.210536 -0.114804,0.397693 -0.02357,0.481962 -0.278357,0.747693 -0.783253,0.816897 -0.204051,0.02797 -0.240978,0.0116 -0.760149,-0.336856 z m 0.978832,-0.37293 c 0.107686,-0.102429 0.13584,-0.173873 0.13584,-0.344704 0,-0.236476 0.08192,-0.431681 0.241924,-0.576484 0.16251,-0.147069 0.135943,-0.244223 -0.05669,-0.207309 -0.444478,0.08518 -1.056406,0.08964 -1.370747,0.01 -0.176591,-0.04474 -1.092829,-0.392003 -2.036083,-0.771695 -0.943254,-0.379693 -1.732359,-0.690076 -1.753568,-0.689739 -0.02121,3.46e-4 -0.08478,0.07258 -0.141266,0.160538 -0.05649,0.08796 -0.141658,0.21992 -0.189266,0.293246 l -0.08656,0.13332 0.436247,0.217341 c 0.631911,0.31482 2.091183,0.895081 2.621657,1.042468 0.494711,0.137451 1.05089,0.400792 1.519311,0.719368 0.334363,0.227403 0.45199,0.229766 0.679199,0.01365 z m -8.466604,-0.412107 c 0.417371,-0.06519 1.038437,-0.296117 1.437145,-0.534372 0.769102,-0.459593 1.363842,-1.120068 1.827267,-2.029231 0.44148,-0.866112 0.516696,-1.182396 0.594299,-2.499047 0.05341,-0.906242 0.17322,-1.456544 0.425487,-1.954368 0.06941,-0.13698 0.117081,-0.258178 0.105929,-0.26933 -0.01115,-0.01115 -0.120775,0.05646 -0.243608,0.150252 -0.279265,0.213234 -0.549767,0.615491 -0.651035,0.968137 -0.09947,0.346392 -0.177519,1.04165 -0.178036,1.585986 -4.45e-4,0.459793 -0.05046,0.578157 -0.295809,0.699912 -0.06739,0.03344 -0.149816,0.115554 -0.18318,0.182476 -0.07712,0.154695 -0.202838,0.246849 -0.336747,0.246849 -0.07138,0 -0.131416,0.0556 -0.18788,0.174009 -0.09106,0.190963 -0.272366,0.287028 -0.455133,0.241156 -0.09625,-0.02416 -0.160012,0.01628 -0.348748,0.221165 -0.259846,0.282088 -0.45297,0.348717 -0.725307,0.250239 -0.151727,-0.05487 -0.19144,-0.04919 -0.373977,0.0534 -0.177713,0.09988 -0.219638,0.106531 -0.322961,0.05123 -0.104055,-0.05569 -0.131623,-0.05066 -0.222965,0.04068 -0.122416,0.122415 -0.319069,0.133258 -0.563627,0.03107 -0.154371,-0.0645 -0.191607,-0.06454 -0.314759,-2.96e-4 -0.191187,0.09972 -0.472703,0.09197 -0.614627,-0.01693 -0.179672,-0.137854 -0.265403,-0.155111 -0.465491,-0.0937 -0.170761,0.05241 -0.19108,0.0474 -0.288478,-0.07111 -0.06204,-0.07549 -0.179466,-0.140861 -0.287874,-0.160266 -0.110842,-0.01984 -0.222724,-0.08315 -0.283516,-0.160438 -0.07222,-0.09182 -0.161011,-0.134494 -0.316205,-0.151986 -0.168598,-0.019 -0.256521,-0.0663 -0.402078,-0.216274 -0.102462,-0.105581 -0.217927,-0.191959 -0.256589,-0.191959 -0.136454,0 -0.355061,-0.584252 -0.415854,-1.111416 -0.07166,-0.621389 -0.252772,-1.342552 -0.435718,-1.734964 -0.226761,-0.486391 -0.531347,-0.77268 -1.019538,-0.95829 -0.109142,-0.0415 -0.117805,-0.03681 -0.07607,0.04117 0.140492,0.262511 0.461968,1.328319 0.572587,1.898325 0.314291,1.619514 0.543218,2.373855 0.978285,3.223573 0.208995,0.408182 0.330483,0.572147 0.699581,0.944182 1.006606,1.014616 2.156739,1.379512 3.625233,1.150156 z m -1.187897,-2.86986 c 0.07619,-0.07619 0.07703,-0.446574 0.0012,-0.522425 -0.106434,-0.106434 -0.188881,0.03153 -0.188881,0.316069 0,0.271026 0.05861,0.335456 0.187706,0.206356 l 0,0 z m 1.627722,-0.254043 c 0.07704,-0.309383 0.03777,-0.427625 -0.142003,-0.427625 -0.08168,0 -0.09275,0.04027 -0.09275,0.337541 0,0.185648 0.01528,0.352823 0.03396,0.371501 0.0735,0.0735 0.133274,-0.01028 0.200788,-0.281417 z m -0.686603,0.0281 c 0.07699,-0.243308 0.02382,-0.356932 -0.167011,-0.356932 -0.09777,0 -0.117294,0.03262 -0.146463,0.244705 -0.03904,0.283853 -0.0077,0.359597 0.140188,0.338526 0.0767,-0.01093 0.125162,-0.07421 0.173286,-0.226299 z m -1.621565,0.01032 c 0.0871,-0.22908 0.05966,-0.39556 -0.07532,-0.457061 l -0.123491,-0.05627 0,0.287086 c 0,0.157897 0.01482,0.301905 0.03293,0.320017 0.06312,0.06312 0.118029,0.03207 0.165877,-0.09378 z m 3.110742,-0.243765 c 0,-0.264632 -0.01424,-0.321076 -0.081,-0.321076 -0.193456,0 -0.279551,0.330967 -0.138484,0.532368 0.146691,0.209431 0.219482,0.139357 0.219482,-0.211292 z m -3.781981,0.04442 c 0.03486,-0.138888 -0.05094,-0.464291 -0.122417,-0.464291 -0.05866,0 -0.146096,0.16885 -0.146096,0.28214 0,0.101664 0.131197,0.310616 0.195031,0.310616 0.02268,0 0.05575,-0.05781 0.07348,-0.128465 z m 4.465202,-0.346531 c 0.06413,-0.225891 0.0753,-0.414137 0.02457,-0.414137 -0.01824,0 -0.07381,0.03679 -0.123491,0.08175 -0.09112,0.08246 -0.122759,0.369028 -0.05908,0.534984 0.04088,0.106521 0.08705,0.04732 0.158001,-0.202597 z m -5.220548,-0.37737 c -0.02636,-0.02635 -0.07462,-0.03141 -0.107264,-0.01124 -0.07437,0.04597 -0.03421,0.390568 0.05865,0.503179 0.05735,0.06955 0.06821,0.04527 0.08136,-0.181877 0.0083,-0.144179 -0.0064,-0.283706 -0.03274,-0.310062 z m 2.749433,-0.07782 c 0.01673,-0.29229 -0.0421,-0.40351 -0.213419,-0.40351 -0.128367,0 -0.172123,0.08347 -0.172123,0.328364 0,0.25406 0.0794,0.372113 0.237955,0.353795 0.123034,-0.01421 0.133596,-0.03415 0.147587,-0.278649 z m -0.731316,0.04039 c 0,-0.08187 -0.02568,-0.198571 -0.05707,-0.25933 -0.03139,-0.06076 -0.07271,-0.143814 -0.09183,-0.184566 -0.01912,-0.04076 -0.099,-0.07409 -0.177559,-0.07409 -0.135774,0 -0.143557,0.01181 -0.158075,0.239865 -0.01885,0.296088 0.07904,0.426985 0.319303,0.426985 0.150825,0 0.165231,-0.01298 0.165231,-0.14886 z m 1.501302,0.07072 c 0.113027,-0.294544 -0.08641,-0.798746 -0.270852,-0.684753 -0.0669,0.04134 -0.05481,0.634464 0.01434,0.703612 0.08368,0.08368 0.221042,0.07358 0.256516,-0.01886 z m 2.203419,-0.11945 c 0,-0.190111 -0.0749,-0.26793 -0.127057,-0.13201 -0.02583,0.06731 0.05465,0.329595 0.101136,0.329595 0.01426,0 0.02592,-0.08891 0.02592,-0.197585 z m -6.218714,-0.261523 c -0.08622,-0.08622 -0.124381,0.104924 -0.05038,0.252323 l 0.06662,0.13269 0.01757,-0.166819 c 0.0097,-0.09175 -0.0055,-0.189937 -0.03381,-0.218194 z m 1.636188,0.113334 c -0.03296,-0.304441 -0.06876,-0.444567 -0.113581,-0.444567 -0.06891,0 -0.144728,0.223346 -0.144728,0.426365 0,0.159534 0.01054,0.17174 0.13584,0.157322 0.11222,-0.01291 0.133515,-0.0371 0.122469,-0.13912 z m 3.162329,0.0368 c 0.135148,-0.110375 0.135464,-0.112093 0.06738,-0.365834 -0.08549,-0.318598 -0.112753,-0.362515 -0.225013,-0.362515 -0.105998,0 -0.149418,0.13078 -0.150361,0.452875 -0.0012,0.406344 0.0699,0.469928 0.307999,0.275474 z m -3.825409,-0.319369 c 0.01571,-0.215992 -0.06184,-0.431717 -0.138213,-0.384514 -0.05823,0.03599 -0.118452,0.446786 -0.08014,0.546635 0.01654,0.04309 0.06903,0.07096 0.11666,0.06193 0.06307,-0.01196 0.09069,-0.07283 0.10169,-0.224047 z m 4.634364,-0.04356 c 0.05617,-0.138358 0.05007,-0.17111 -0.06277,-0.337168 -0.120015,-0.176617 -0.128733,-0.180528 -0.219448,-0.09843 -0.09506,0.08602 -0.128409,0.368824 -0.06346,0.538078 0.05338,0.139111 0.274168,0.07366 0.345675,-0.102479 z m 1.193497,0.05011 c 0.03031,-0.01621 -0.106481,-0.267342 -0.145618,-0.267342 -0.02281,0 -0.04147,0.09164 -0.04147,0.203633 0,0.186211 0.0074,0.197973 0.08644,0.137468 0.04754,-0.03639 0.09283,-0.06958 0.100642,-0.07376 z m 3.468239,-1.160234 c 0.720041,-0.343795 0.789024,-0.366676 1.158217,-0.384164 0.465324,-0.02204 1.072152,0.09058 1.596911,0.296373 0.422751,0.165786 0.505251,0.1719 0.657376,0.04872 l 0.113898,-0.09223 -0.210528,-0.348435 c -0.181533,-0.300448 -0.212724,-0.393243 -0.226482,-0.673791 -0.01742,-0.355136 -0.119673,-0.571582 -0.270038,-0.571582 -0.05101,0 -0.211655,0.05537 -0.356984,0.123041 -0.14533,0.06767 -0.340359,0.13756 -0.4334,0.155305 -0.211601,0.04036 -3.980654,1.704253 -4.108575,1.813783 -0.07269,0.06224 -0.09383,0.146655 -0.09383,0.374637 l 0,0.294297 0.703897,-0.335192 c 0.387143,-0.184355 1.048436,-0.499697 1.469539,-0.70076 z m -9.838157,0.85065 c 0.02452,-0.172409 -0.08708,-0.402325 -0.195279,-0.402325 -0.07642,0 -0.0928,0.0375 -0.0928,0.212404 0,0.116822 0.02732,0.239727 0.06072,0.273122 0.09072,0.09072 0.208774,0.04752 0.227362,-0.0832 z m 5.734681,-0.137307 c 0.115264,-0.146534 0.123236,-0.203725 0.05384,-0.386248 -0.04303,-0.113169 -0.05985,-0.120597 -0.148189,-0.06543 -0.07942,0.0496 -0.09965,0.114983 -0.09965,0.322031 0,0.290886 0.04403,0.320307 0.194,0.129645 z m -2.582884,0.0067 c 0.01922,-0.0501 0.0978,-0.07409 0.24263,-0.07409 0.151744,0 0.233018,-0.02652 0.278744,-0.09095 0.137456,-0.193692 0.440518,-0.264524 0.628771,-0.146958 0.07937,0.04956 0.120893,0.03452 0.272729,-0.09879 0.138755,-0.121829 0.224549,-0.157259 0.380802,-0.157259 0.152984,0 0.241843,-0.03525 0.367934,-0.145961 0.09143,-0.08028 0.251846,-0.171609 0.356475,-0.202956 0.164402,-0.04926 0.216485,-0.04353 0.383542,0.04218 l 0.193309,0.09917 0.08309,-0.386242 c 0.175666,-0.816577 0.511901,-1.247438 1.473087,-1.887657 0.736513,-0.490571 0.815351,-0.604239 0.814163,-1.173859 -7.65e-4,-0.367777 -0.02965,-0.505665 -0.232817,-1.111416 -0.397728,-1.18585 -0.454429,-1.454131 -0.454138,-2.148738 2.97e-4,-0.680176 0.0447,-0.936292 0.308387,-1.778266 0.241869,-0.772315 0.244707,-1.211852 0.01196,-1.85236 -0.206463,-0.568169 -0.235331,-0.741733 -0.130089,-0.782119 0.05736,-0.02201 0.140701,0.05237 0.297877,0.265883 0.512515,0.696202 0.551431,1.175465 0.210377,2.59088 -0.12438,0.516191 -0.240162,1.050016 -0.257294,1.186277 -0.03004,0.238903 0.115795,1.44263 0.215344,1.777499 0.04287,0.144211 0.05006,0.135592 0.267999,-0.321076 0.309353,-0.64823 0.508142,-1.238988 0.66318,-1.970834 0.118941,-0.561451 0.131676,-0.721734 0.129919,-1.635094 -0.0018,-0.928983 -0.0125,-1.052223 -0.129667,-1.492054 -0.661007,-2.481278 -3.014559,-4.219711 -6.210259,-4.587158 -1.745943,-0.200752 -3.902282,0.323503 -5.381753,1.308427 -1.225676,0.815965 -1.99073,1.844464 -2.443214,3.284528 -0.244244,0.777324 -0.293895,1.110171 -0.261638,1.753922 0.03609,0.720172 0.156197,1.129624 0.587163,2.001627 0.402005,0.813403 0.399639,0.813356 0.482135,0.0094 0.05707,-0.556089 0.032,-1.107482 -0.08079,-1.777217 -0.09097,-0.540188 -0.06589,-0.949634 0.09042,-1.47617 0.08968,-0.302079 0.127312,-0.365981 0.230848,-0.391967 0.141334,-0.03547 0.278797,0.101811 0.229385,0.229085 -0.205694,0.529819 -0.217788,1.171375 -0.04134,2.192974 0.200468,1.160657 0.173626,1.411107 -0.302817,2.825443 -0.374095,1.110513 -0.381106,1.140327 -0.355792,1.51296 0.05778,0.850545 0.53197,1.407622 1.486684,1.746552 1.010788,0.358837 1.548116,1.046614 1.686296,2.158451 0.03997,0.321605 0.0912,0.348046 0.358535,0.185051 0.191273,-0.116619 0.399545,-0.126816 0.532724,-0.02608 0.05274,0.03989 0.155307,0.07323 0.227935,0.07409 0.07263,8.65e-4 0.202406,0.06077 0.288398,0.13313 0.179446,0.150994 0.517898,0.231497 0.991744,0.235894 0.179011,0.0017 0.358161,0.03001 0.398112,0.06301 0.04197,0.03466 0.213796,0.0589 0.407028,0.05742 0.183915,-0.0014 0.347451,0.01049 0.363414,0.02646 0.06013,0.06013 0.312944,0.02666 0.340469,-0.04507 z"
   id="path4147"
   inkscape:connector-curvature="0"
   transform="matrix(2.4062207,0,0,-2.3980116,236.4323,487.9825)" /><path
   style="fill:#000000;fill-opacity:1;stroke-width:0.00652157;stroke-miterlimit:4.80000019;stroke-dasharray:none"
   d="m 33.705094,38.28756 c -0.484868,-0.313386 -0.951512,-0.531109 -1.549773,-0.723084 -0.985169,-0.316127 -2.999146,-1.161029 -2.999146,-1.258198 0,-0.07967 0.358211,-0.586337 0.414513,-0.586301 0.03011,2e-5 0.754944,0.278443 1.610734,0.618719 0.855791,0.340276 1.722695,0.674116 1.926455,0.741866 0.409419,0.136132 0.853626,0.169265 1.420143,0.105928 0.238949,-0.02671 0.358123,-0.02309 0.358123,0.01091 0,0.02802 -0.06979,0.149952 -0.155084,0.270962 -0.108034,0.15327 -0.162404,0.296206 -0.179213,0.471147 -0.02003,0.208465 -0.05272,0.276228 -0.19241,0.398879 -0.09255,0.08126 -0.208516,0.147751 -0.257694,0.147751 -0.04918,0 -0.22767,-0.08936 -0.396648,-0.198574 z"
   id="path4149"
   inkscape:connector-curvature="0"
   transform="matrix(2.4062207,0,0,-2.3980116,236.4323,487.9825)" /><path
   style="fill:#000000;fill-opacity:1;stroke-width:0.00652157;stroke-miterlimit:4.80000019;stroke-dasharray:none"
   d="m 30.24365,32.9661 c 4.15e-4,-0.156216 0.01709,-0.308947 0.03705,-0.339403 0.01996,-0.03046 0.180775,-0.128096 0.357366,-0.216978 0.520374,-0.261915 3.291045,-1.471761 3.725199,-1.62665 0.219665,-0.07837 0.482033,-0.177733 0.58304,-0.22081 0.386825,-0.164971 0.506655,-0.05951 0.578003,0.508707 0.03377,0.268954 0.08822,0.429364 0.221954,0.653861 0.205405,0.344813 0.205981,0.347834 0.08687,0.455626 -0.126743,0.114701 -0.252069,0.103166 -0.736382,-0.06777 -0.565944,-0.199754 -1.242193,-0.313788 -1.612931,-0.271985 -0.316573,0.0357 -0.641299,0.172406 -2.222128,0.935516 -0.539964,0.260656 -0.990087,0.47392 -1.000275,0.47392 -0.01019,0 -0.01818,-0.127813 -0.01777,-0.284029 z"
   id="path4151"
   inkscape:connector-curvature="0"
   transform="matrix(2.4062207,0,0,-2.3980116,236.4323,487.9825)" /><path
   style="fill:#000000;fill-opacity:1;stroke-width:0.00652157;stroke-miterlimit:4.80000019;stroke-dasharray:none"
   d="m 33.626538,38.829584 c -0.501821,-0.337948 -0.874804,-0.531645 -1.411311,-0.732921 -0.283329,-0.106294 -0.6374,-0.248086 -0.786823,-0.315092 -0.477887,-0.214301 -2.46573,-0.974911 -2.547914,-0.974911 -0.04359,0 -0.216115,0.124602 -0.383395,0.276894 -0.415811,0.378553 -0.802031,0.634862 -1.335412,0.886226 -0.615326,0.289982 -0.942226,0.370382 -1.636649,0.402525 -0.756616,0.03502 -1.335874,-0.04202 -1.940377,-0.258078 -0.670736,-0.239731 -1.176193,-0.561521 -1.700513,-1.082603 l -0.444632,-0.441886 -0.253908,0.08905 c -0.414236,0.145279 -3.09358,1.157953 -3.420085,1.292641 -0.165656,0.06834 -0.508193,0.281403 -0.761192,0.473484 -0.552079,0.419147 -0.720814,0.498725 -0.930173,0.438682 -0.396959,-0.113847 -0.590785,-0.327773 -0.695781,-0.767935 -0.0324,-0.135839 -0.109406,-0.32478 -0.171118,-0.419868 -0.246206,-0.379362 -0.297664,-0.787005 -0.126771,-1.004261 0.143107,-0.181931 0.391227,-0.235498 0.920369,-0.198698 0.421003,0.02928 0.470349,0.02267 0.691548,-0.09267 0.131008,-0.06831 1.036165,-0.394773 2.011461,-0.725481 0.975295,-0.330707 1.814414,-0.623309 1.864709,-0.650226 0.07166,-0.03835 0.09145,-0.106639 0.09145,-0.315665 0,-0.484497 0.0034,-0.481566 -0.874059,-0.759797 -0.429394,-0.136159 -1.32531,-0.40565 -1.990925,-0.598868 -0.665615,-0.193218 -1.471712,-0.428133 -1.791327,-0.522032 -0.647813,-0.190321 -0.79255,-0.202487 -1.143253,-0.0961 -0.133365,0.04046 -0.418486,0.07356 -0.633602,0.07356 -0.366428,0 -0.400234,-0.0091 -0.535508,-0.144389 -0.122073,-0.122072 -0.144389,-0.183568 -0.144389,-0.397876 0,-0.207128 0.03524,-0.311912 0.192682,-0.572959 0.157569,-0.261253 0.198993,-0.384533 0.227312,-0.676492 0.04174,-0.430335 0.126927,-0.629722 0.31702,-0.742013 0.243164,-0.14364 0.511435,-0.109162 0.879935,0.113091 0.524351,0.316251 2.284481,0.969839 4.30386,1.59815 l 0.561313,0.174647 -0.0284,-0.142002 c -0.08179,-0.408977 -0.351054,-0.960796 -0.642037,-1.315793 -0.477559,-0.582618 -0.765049,-1.000731 -0.961881,-1.39892 -0.246124,-0.497905 -0.265275,-0.880349 -0.08792,-1.755819 0.07059,-0.348459 0.128348,-0.718177 0.128348,-0.821596 0,-0.132316 -0.132293,-0.475656 -0.446452,-1.158682 -0.627344,-1.363932 -0.704892,-1.641563 -0.709422,-2.539809 -0.0032,-0.634502 0.01245,-0.778174 0.137087,-1.258865 0.388079,-1.496661 0.956236,-2.494899 1.973523,-3.467432 1.483956,-1.418671 3.432958,-2.105799 5.738459,-2.023114 2.810763,0.100805 5.06995,1.168201 6.535044,3.087606 0.315309,0.413084 0.732185,1.292524 0.869427,1.834143 0.244764,0.965945 0.286426,2.337069 0.09893,3.255726 -0.174384,0.854394 -0.478104,1.748578 -0.894898,2.634672 l -0.227574,0.483818 0.157131,0.505263 c 0.307097,0.98749 0.17889,1.597612 -0.491198,2.337547 -0.286892,0.316795 -0.550672,0.713812 -0.689601,1.037921 -0.129699,0.302575 -0.126341,0.380664 0.01459,0.339242 0.392124,-0.115255 3.563256,-1.418404 3.988749,-1.639142 0.581232,-0.301532 0.684968,-0.310847 1.030772,-0.09255 0.270601,0.170823 0.337533,0.287554 0.398897,0.695683 0.02859,0.190175 0.06394,0.416858 0.07856,0.503739 0.01461,0.08688 0.102789,0.249194 0.195945,0.360695 0.193624,0.231753 0.241877,0.424264 0.185422,0.739762 -0.03106,0.173558 -0.0754,0.245254 -0.206241,0.333425 -0.232838,0.156909 -0.571474,0.146363 -1.278488,-0.03982 -0.37087,-0.09766 -0.755397,-0.161922 -1.073859,-0.17946 -0.487209,-0.02683 -0.504486,-0.02398 -0.963227,0.159025 -0.256916,0.102489 -0.945029,0.404221 -1.52914,0.670516 l -1.06202,0.484171 -0.114347,0.311633 c -0.196432,0.535341 -0.351204,1.194102 -0.296234,1.260872 0.09359,0.113673 2.949785,1.188139 3.453443,1.299141 0.267111,0.05887 0.951255,0.04418 1.39076,-0.02987 0.248489,-0.04186 0.514823,0.01314 0.632252,0.130566 0.157096,0.157096 0.121953,0.400663 -0.126246,0.874995 -0.128349,0.245284 -0.222284,0.491457 -0.222284,0.582532 0,0.194309 -0.109051,0.464838 -0.232362,0.576433 -0.141335,0.127907 -0.435291,0.235531 -0.642835,0.235356 -0.136276,-9.8e-5 -0.26701,-0.05416 -0.4832,-0.199751 z m -7.39951,-1.036666 c 1.391946,-0.352848 2.486854,-1.365535 3.162772,-2.925269 0.219641,-0.506839 0.295645,-0.887542 0.362371,-1.815106 0.06752,-0.938664 0.200968,-1.636704 0.394467,-2.063458 0.08059,-0.177735 0.13758,-0.332099 0.126647,-0.343033 -0.05119,-0.05119 -0.570131,0.534937 -0.687407,0.776414 -0.169555,0.349124 -0.22538,0.649915 -0.284199,1.531285 -0.0524,0.785154 -0.0935,0.943401 -0.269516,1.037601 -0.06462,0.03458 -0.186461,0.148698 -0.27075,0.253584 -0.08429,0.104887 -0.190204,0.190703 -0.235368,0.190703 -0.04516,0 -0.173951,0.100028 -0.286194,0.222283 -0.170344,0.18554 -0.233869,0.222284 -0.384299,0.222284 -0.147546,0 -0.23088,0.04588 -0.459659,0.253061 l -0.279438,0.253061 -0.313667,-0.03214 c -0.239119,-0.0245 -0.349782,-0.01346 -0.465633,0.04645 -0.09807,0.05071 -0.204424,0.06706 -0.299868,0.0461 -0.105507,-0.02317 -0.174875,-0.0081 -0.242006,0.05268 -0.07625,0.069 -0.143578,0.07852 -0.354806,0.05018 -0.300966,-0.04039 -0.413049,-0.04028 -0.75888,7.75e-4 -0.202323,0.02402 -0.283861,0.01 -0.419066,-0.07227 -0.136683,-0.08312 -0.216191,-0.09641 -0.428,-0.07151 -0.18573,0.02183 -0.260133,0.01371 -0.260133,-0.0284 0,-0.03244 -0.105584,-0.104844 -0.234632,-0.160906 -0.129048,-0.05606 -0.282531,-0.145613 -0.341073,-0.199003 -0.05854,-0.05339 -0.201018,-0.11832 -0.316611,-0.144293 -0.12885,-0.02895 -0.330272,-0.142789 -0.520574,-0.294217 -0.376051,-0.299233 -0.462207,-0.494855 -0.611409,-1.38825 -0.261324,-1.564761 -0.617186,-2.227832 -1.343943,-2.504145 l -0.131685,-0.05007 0.06812,0.163046 c 0.153057,0.366319 0.420412,1.345212 0.615116,2.252185 0.435572,2.028993 0.88479,3.033993 1.689087,3.778862 0.611597,0.566407 1.360096,0.94773 2.076539,1.057893 0.430738,0.06623 1.243612,0.02025 1.703692,-0.09638 l 0,-10e-7 z m -1.477091,-3.056575 c -0.0081,-0.124635 -0.03696,-0.225349 -0.06413,-0.223809 -0.06138,0.0035 -0.107781,0.247476 -0.08189,0.430661 0.0159,0.112526 0.03204,0.126574 0.09006,0.07842 0.0472,-0.03917 0.06579,-0.133964 0.05596,-0.285273 z m 1.588993,0.07569 c 0.07216,-0.257739 0.05425,-0.394364 -0.05443,-0.415295 -0.09594,-0.01848 -0.130776,0.12545 -0.102065,0.421724 0.02606,0.268915 0.08003,0.266698 0.156498,-0.0064 z m -0.691509,0.02269 c 0.08557,-0.206585 0.04992,-0.324984 -0.09785,-0.324984 -0.111471,0 -0.124204,0.02167 -0.137869,0.234633 -0.0131,0.204202 -0.0027,0.234632 0.08045,0.234632 0.05897,0 0.118368,-0.05519 0.155269,-0.144281 z m -1.628458,0.03281 c 0,-0.007 0.02056,-0.08437 0.04569,-0.17199 0.03661,-0.127662 0.02764,-0.181576 -0.04515,-0.271353 -0.04996,-0.06162 -0.104972,-0.09796 -0.122251,-0.08076 -0.045,0.0448 0.02711,0.536777 0.07867,0.536777 0.02367,0 0.04303,-0.0057 0.04303,-0.01268 z m 3.118947,-0.446712 c -0.01309,-0.09567 -0.04373,-0.133617 -0.0994,-0.12308 -0.121069,0.02292 -0.136394,0.367168 -0.022,0.494193 0.08884,0.09865 0.08996,0.098 0.115014,-0.06659 0.01391,-0.09142 0.01679,-0.228452 0.0064,-0.304523 z m -3.77358,0.03708 c -0.0279,-0.247537 -0.05356,-0.295312 -0.132421,-0.246572 -0.07156,0.04423 -0.06685,0.338578 0.0066,0.41202 0.111498,0.111498 0.151165,0.05934 0.125828,-0.165448 z m 4.505314,-0.411127 c 0.0018,-0.13613 -0.01023,-0.156247 -0.06591,-0.110034 -0.08635,0.07166 -0.133311,0.300555 -0.09317,0.454069 0.03069,0.117353 0.03124,0.11718 0.09386,-0.0297 0.03465,-0.08126 0.06399,-0.222711 0.06522,-0.314333 z m -5.233777,0.06779 c 0,-0.122255 -0.02223,-0.222283 -0.0494,-0.222283 -0.0542,0 -0.06704,0.242318 -0.01941,0.366432 0.04974,0.129609 0.06881,0.08965 0.06881,-0.144149 z m 2.706911,-0.358123 c -0.01402,-0.268879 -0.02206,-0.284862 -0.150654,-0.299658 -0.118722,-0.01366 -0.136529,0.0019 -0.141307,0.12349 -0.0073,0.184774 0.01005,0.37735 0.03805,0.42315 0.01245,0.02038 0.07801,0.03705 0.145686,0.03705 0.118575,0 0.122502,-0.01031 0.108226,-0.284029 z m -0.73106,0.02931 c 0,-0.230773 -0.12997,-0.436829 -0.275529,-0.436829 -0.119457,0 -0.124164,0.01106 -0.109874,0.25813 0.01244,0.215129 0.03463,0.267906 0.13315,0.31681 0.164064,0.08144 0.252253,0.03315 0.252253,-0.138111 z m 1.539111,0.04478 c 0.01994,-0.283184 -0.07567,-0.580406 -0.186706,-0.580406 -0.0507,0 -0.0681,0.07993 -0.0681,0.312842 0,0.336937 0.01725,0.378705 0.156422,0.378705 0.05866,0 0.09332,-0.03914 0.09839,-0.111141 z m 2.148927,-0.148189 c -0.0137,-0.03396 -0.02492,-0.0062 -0.02492,0.06174 0,0.06792 0.01121,0.09571 0.02492,0.06175 0.0137,-0.03396 0.0137,-0.08953 0,-0.123491 z m -6.174847,-0.09973 c -0.01353,-0.03344 -0.02378,0.0059 -0.02277,0.08738 10e-4,0.0815 0.01208,0.108866 0.0246,0.0608 0.01252,-0.04806 0.0117,-0.114746 -0.0018,-0.148189 l 2e-6,0 z m 1.621632,-0.04846 c -0.04175,-0.256856 -0.108068,-0.340159 -0.143322,-0.180032 -0.06667,0.302827 -0.05007,0.389966 0.07431,0.389966 0.09376,0 0.100031,-0.01909 0.06901,-0.209934 z m 3.188341,0.119829 c 0.105478,-0.08541 0.108111,-0.103297 0.05053,-0.343328 -0.09914,-0.413279 -0.277829,-0.449398 -0.299447,-0.06053 -0.02825,0.508108 0.02117,0.588279 0.248919,0.403857 z M 23.080433,33.30244 c 0,-0.2464 -0.06323,-0.364433 -0.118314,-0.220875 -0.01643,0.04282 -0.02987,0.164946 -0.02987,0.271396 0,0.139109 0.02084,0.193545 0.07409,0.193545 0.05586,0 0.07409,-0.06005 0.07409,-0.244066 z m 4.620628,0.02555 c 0.0712,-0.108666 0.07134,-0.133475 0.0015,-0.268547 -0.04233,-0.08185 -0.09683,-0.1611 -0.121108,-0.176107 -0.100736,-0.06226 -0.222177,0.260136 -0.17129,0.454728 0.03818,0.146017 0.192126,0.140686 0.290908,-0.01007 l -2e-6,0 z m 1.207377,0.0086 c -3.96e-4,-0.03396 -0.01956,-0.09141 -0.04254,-0.127666 -0.03193,-0.05037 -0.04796,-0.0423 -0.06797,0.03419 -0.0144,0.05506 -0.01378,0.112509 0.0014,0.127666 0.04865,0.04865 0.109909,0.02946 0.109129,-0.03419 l 2e-6,0 z m -6.371364,-0.352075 c 0,-0.159348 -0.116197,-0.326184 -0.181617,-0.260764 -0.03903,0.03903 -0.03304,0.310617 0.0083,0.377548 0.07162,0.11588 0.173294,0.04736 0.173294,-0.116784 z m 5.828005,-0.273034 c -9.59e-4,-0.162015 -0.05957,-0.256643 -0.13133,-0.21202 -0.05559,0.03456 -0.08116,0.178789 -0.07097,0.400218 0.0053,0.115628 0.0081,0.116412 0.10426,0.02939 0.05434,-0.04917 0.09845,-0.147089 0.09804,-0.21759 z m -2.645955,0.19938 c 0.01459,-0.0236 0.119209,-0.05773 0.232498,-0.07585 0.113288,-0.01812 0.27391,-0.0901 0.356936,-0.15996 0.132512,-0.111502 0.184429,-0.124228 0.424918,-0.104164 0.228169,0.01904 0.298731,0.0045 0.42215,-0.08708 0.0815,-0.06047 0.243372,-0.124324 0.359706,-0.141902 0.116334,-0.01758 0.302342,-0.09776 0.413351,-0.17817 0.265088,-0.192029 0.497755,-0.234401 0.715896,-0.130377 0.128953,0.06149 0.173381,0.06596 0.187626,0.01888 0.01027,-0.03393 0.05488,-0.214173 0.09914,-0.400536 0.167541,-0.705468 0.528394,-1.157336 1.414966,-1.771856 0.553307,-0.38352 0.767934,-0.609248 0.814304,-0.856422 0.06416,-0.341977 -0.01214,-0.824704 -0.241482,-1.527941 -0.333376,-1.022221 -0.380357,-1.230389 -0.412487,-1.827663 -0.03529,-0.656045 0.02209,-1.06119 0.268775,-1.897714 0.246817,-0.836967 0.251592,-1.333086 0.01958,-2.034398 -0.08631,-0.260906 -0.156934,-0.520776 -0.156934,-0.577491 0,-0.460474 0.609621,0.284129 0.772283,0.943281 0.100857,0.408698 0.06749,0.701318 -0.237489,2.082717 l -0.206825,0.936813 0.05777,0.569774 c 0.08734,0.861352 0.15596,1.200701 0.230329,1.13898 0.09309,-0.07726 0.497358,-1.054899 0.639248,-1.545904 0.272734,-0.943789 0.300881,-1.169198 0.297472,-2.382249 -0.0031,-1.088667 -0.0088,-1.154267 -0.13633,-1.570771 -0.680367,-2.221205 -2.613364,-3.782362 -5.376372,-4.342149 -0.479281,-0.0971 -0.709123,-0.113339 -1.597168,-0.112825 -0.896884,5.18e-4 -1.110885,0.0162 -1.580681,0.115817 -0.813863,0.172576 -1.507688,0.412395 -2.222833,0.768315 -1.818064,0.904833 -2.907793,2.314194 -3.359064,4.344323 -0.109139,0.490985 -0.08211,1.586245 0.04953,2.006788 0.102021,0.325926 0.479495,1.175369 0.657204,1.478925 l 0.127978,0.21861 0.04102,-0.144516 c 0.09508,-0.334994 0.102273,-1.322189 0.01437,-1.972176 -0.104811,-0.774997 -0.08116,-1.299051 0.08026,-1.778266 0.100628,-0.298734 0.133849,-0.347794 0.244192,-0.360621 0.223456,-0.02598 0.261952,0.08623 0.165595,0.48268 -0.100836,0.414878 -0.07786,1.387401 0.04905,2.076075 0.0969,0.525834 0.09827,1.214761 0.0032,1.617923 -0.04006,0.169907 -0.208718,0.725615 -0.374795,1.234907 -0.291755,0.894695 -0.301287,0.940307 -0.282092,1.349846 0.02479,0.52885 0.181191,0.87999 0.532751,1.196073 0.240194,0.215956 0.388463,0.29925 1.186358,0.666474 0.785109,0.361339 1.201347,0.901685 1.384965,1.797913 0.05031,0.245547 0.104658,0.459639 0.120779,0.47576 0.01612,0.01612 0.100705,-1.3e-5 0.187964,-0.03585 0.08726,-0.03584 0.222015,-0.07659 0.299457,-0.09055 0.157635,-0.02842 0.630461,0.110654 0.82832,0.243636 0.214027,0.143849 0.375928,0.187276 0.900803,0.241626 0.275601,0.02854 0.623349,0.06938 0.772773,0.09077 0.387982,0.05553 0.780063,0.0606 0.811028,0.0105 z"
   id="path4153"
   inkscape:connector-curvature="0"
   transform="matrix(2.4062207,0,0,-2.3980116,236.4323,487.9825)" /></g>  </g>
</svg>
