<?xml version="1.0" encoding="UTF-8" standalone="no"?>
<svg
   xmlns:dc="http://purl.org/dc/elements/1.1/"
   xmlns:cc="http://creativecommons.org/ns#"
   xmlns:rdf="http://www.w3.org/1999/02/22-rdf-syntax-ns#"
   xmlns:svg="http://www.w3.org/2000/svg"
   xmlns="http://www.w3.org/2000/svg"
   xmlns:sodipodi="http://sodipodi.sourceforge.net/DTD/sodipodi-0.dtd"
   xmlns:inkscape="http://www.inkscape.org/namespaces/inkscape"
   version="1.0"
   width="50"
   height="44"
   id="svg1887"
   inkscape:version="0.91 r13725"
   sodipodi:docname="danger_gaz.svg"
   inkscape:export-filename="Q:\800_SDIS\804_MODELE_DONNEES_SDIS\GitHub\data-model-sdis\symbols\danger_electrique.png"
   inkscape:export-xdpi="90"
   inkscape:export-ydpi="90">
  <metadata
     id="metadata12">
    <rdf:RDF>
      <cc:Work
         rdf:about="">
        <dc:format>image/svg+xml</dc:format>
        <dc:type
           rdf:resource="http://purl.org/dc/dcmitype/StillImage" />
        <dc:title />
      </cc:Work>
    </rdf:RDF>
  </metadata>
  <sodipodi:namedview
     pagecolor="#ffffff"
     bordercolor="#666666"
     borderopacity="1"
     objecttolerance="10"
     gridtolerance="10"
     guidetolerance="10"
     inkscape:pageopacity="0"
     inkscape:pageshadow="2"
     inkscape:window-width="1836"
     inkscape:window-height="1058"
     id="namedview10"
     showgrid="false"
     fit-margin-top="0"
     fit-margin-left="0"
     fit-margin-right="0"
     fit-margin-bottom="0"
     inkscape:zoom="7.1574912"
     inkscape:cx="4.4501655"
     inkscape:cy="21.53654"
     inkscape:window-x="76"
     inkscape:window-y="-8"
     inkscape:window-maximized="1"
     inkscape:current-layer="g10" />
  <defs
     id="defs1889" />
  <g
     transform="matrix(0.33247371,0,0,0.33361186,-80.441664,-137.49205)"
     id="layer1">
    <g
       transform="matrix(1.249992,0,0,-1.249992,-53.58954,1022.106)"
       style="font-style:normal;font-variant:normal;font-weight:normal;font-stretch:normal;letter-spacing:normal;word-spacing:normal;text-anchor:start;fill:none;fill-opacity:1;stroke:#000000;stroke-linecap:butt;stroke-linejoin:miter;stroke-miterlimit:10.43299961;stroke-dasharray:none;stroke-dashoffset:0;stroke-opacity:1"
       id="g10"
       xml:space="preserve">
<path
   d="m 241.4,382.47 110.38,0 0,0 c 3.82,0 6.2,4.14 4.29,7.44 l 0,0 -55.19,95.59 0,0 c -1.9,3.31 -6.68,3.31 -8.59,0 l 0,0 -55.19,-95.59 0,0 c -1.9,-3.3 0.48,-7.44 4.3,-7.44 z"
   style="fill:#000000;fill-rule:nonzero;stroke:#ff1721;stroke-width:0;fill-opacity:1"
   id="path12"
   inkscape:connector-curvature="0" /><polygon
   points="343.19,392.39 296.59,473.1 249.99,392.39 249.99,392.39 "
   style="fill:#ff7d00;fill-rule:nonzero;stroke:#ffffff;stroke-width:0;fill-opacity:1"
   id="polygon14" />




<path
   style="fill:#ffffff;fill-opacity:1;stroke-width:0.00326078;stroke-miterlimit:4.80000019;stroke-dasharray:none"
   d="m 24.951812,38.154392 c -1.251661,-0.1101 -2.217754,-0.33531 -3.162389,-0.7372 -1.81278,-0.771237 -3.134032,-2.026761 -3.977153,-3.779304 -0.667934,-1.388392 -1.002751,-2.81227 -1.05118,-4.470363 -0.04248,-1.4544 0.177884,-2.874562 0.637684,-4.109644 0.78377,-2.105309 2.180393,-3.651166 4.152589,-4.596309 1.143038,-0.547783 2.424949,-0.795214 4.116695,-0.794592 1.6609,6.1e-4 2.921194,0.230868 4.073242,0.744186 1.405535,0.626266 2.547797,1.810682 3.14496,3.261023 0.162953,0.395766 0.409757,1.222207 0.375288,1.256676 -0.0067,0.0067 -0.420386,0.08836 -0.919321,0.181483 -2.142754,0.399936 -2.621025,0.488296 -2.643015,0.488296 -0.01281,0 -0.05978,-0.102806 -0.104367,-0.228458 -0.184599,-0.520206 -0.463556,-0.986533 -0.81081,-1.35542 -0.649435,-0.689891 -1.421766,-1.071356 -2.449127,-1.209658 -0.297432,-0.04004 -1.125228,-0.04063 -1.432492,-0.001 -1.173354,0.151269 -2.061172,0.54967 -2.832191,1.27092 -0.801378,0.74965 -1.304149,1.880159 -1.506896,3.388337 -0.06351,0.472473 -0.06329,2.071894 3.71e-4,2.580956 0.234191,1.872855 0.829016,3.110757 1.918477,3.992583 1.236157,1.000563 3.040027,1.29996 4.80361,0.797276 0.770401,-0.219592 1.771318,-0.706085 2.395104,-1.164136 l 0.161152,-0.118335 0,-1.12375 0,-1.12375 -2.068469,-0.0063 -2.068469,-0.0063 -0.0064,-1.512761 -0.0064,-1.512761 3.902496,0 3.902495,0 0,3.5791 0,3.5791 -0.228458,0.194959 c -0.590666,0.50406 -1.129385,0.844 -2.022811,1.276428 -1.300354,0.629387 -2.579681,1.014055 -4.003888,1.203888 -0.307021,0.04092 -0.542245,0.05149 -1.277774,0.0574 -0.495816,0.004 -0.951496,0.0028 -1.012624,-0.0025 z"
   id="path4142"
   inkscape:connector-curvature="0"
   transform="matrix(2.4062207,0,0,-2.3980116,236.4323,487.9825)" /><path
   style="fill:#000000;fill-opacity:1;stroke-width:0.00326078;stroke-miterlimit:4.80000019;stroke-dasharray:none"
   d="m 24.680132,38.132422 c -0.723185,-0.08634 -1.118612,-0.155322 -1.630077,-0.284373 -0.331584,-0.08367 -0.832654,-0.249776 -1.148463,-0.380731 -1.889617,-0.783559 -3.245331,-2.060526 -4.112741,-3.873849 -0.656595,-1.372613 -0.985312,-2.803299 -1.028263,-4.47534 -0.07652,-2.978717 0.923417,-5.614731 2.769983,-7.302201 1.081214,-0.98806 2.430424,-1.678219 3.803513,-1.945606 0.839648,-0.163507 1.45931,-0.209347 2.593304,-0.19184 1.127564,0.01741 1.728497,0.08678 2.543908,0.29366 1.274806,0.323438 2.199834,0.829433 3.039185,1.662451 0.715017,0.709622 1.19508,1.475559 1.517035,2.420418 0.137625,0.403893 0.259592,0.848294 0.238584,0.869302 -0.02633,0.02633 -3.351922,0.652718 -3.496383,0.658559 l -0.08468,0.0034 -0.150951,-0.358123 c -0.216387,-0.513366 -0.388745,-0.794936 -0.710575,-1.160812 -0.544631,-0.619173 -1.241545,-1.006543 -2.166064,-1.203978 -0.295909,-0.06319 -0.34375,-0.06628 -1.03879,-0.06711 -0.662945,-7.88e-4 -0.754188,0.0042 -1.012624,0.05582 -0.845982,0.168836 -1.359311,0.369533 -1.938804,0.758017 -0.681786,0.457059 -1.123874,0.96846 -1.49484,1.729206 -0.263072,0.539486 -0.424372,1.06668 -0.55919,1.827662 l -0.07001,0.39517 7.48e-4,1.19786 c 7.46e-4,1.19308 0.001,1.199534 0.06977,1.617728 0.283326,1.723383 0.859386,2.837872 1.895797,3.667755 0.505879,0.405071 1.069405,0.68129 1.7384,0.852099 1.055852,0.269582 2.317895,0.200999 3.393272,-0.184399 0.663566,-0.237811 1.489227,-0.658186 1.984747,-1.010508 l 0.216109,-0.153656 0,-1.122415 0,-1.122414 -2.068469,-0.0063 -2.068469,-0.0063 -0.0064,-1.512761 -0.0064,-1.512761 3.902496,0 3.902495,0 0,3.580074 0,3.580073 -0.166712,0.143424 c -0.565864,0.486817 -1.064124,0.811101 -1.869649,1.216828 -1.343238,0.676564 -2.571477,1.068492 -4.064079,1.296837 -0.535623,0.08194 -2.191216,0.111889 -2.716795,0.04914 z"
   id="path4144"
   inkscape:connector-curvature="0"
   transform="matrix(2.4062207,0,0,-2.3980116,236.4323,487.9825)" /></g>  </g>
</svg>
