<?xml version="1.0" encoding="UTF-8" standalone="no"?>
<!-- Created with Inkscape (http://www.inkscape.org/) -->

<svg
   xmlns:dc="http://purl.org/dc/elements/1.1/"
   xmlns:cc="http://creativecommons.org/ns#"
   xmlns:rdf="http://www.w3.org/1999/02/22-rdf-syntax-ns#"
   xmlns:svg="http://www.w3.org/2000/svg"
   xmlns="http://www.w3.org/2000/svg"
   xmlns:sodipodi="http://sodipodi.sourceforge.net/DTD/sodipodi-0.dtd"
   xmlns:inkscape="http://www.inkscape.org/namespaces/inkscape"
   width="165.6376mm"
   height="165.6028mm"
   viewBox="0 0 165.63761 165.6028"
   version="1.1"
   id="svg8"
   inkscape:version="0.92.4 (5da689c313, 2019-01-14)"
   sodipodi:docname="acces_immeubles.svg"
   inkscape:export-filename="U:\800_SDIS\Acces_immeubles\acces_immeubles.png"
   inkscape:export-xdpi="96"
   inkscape:export-ydpi="96">
  <defs
     id="defs2" />
  <sodipodi:namedview
     id="base"
     pagecolor="#ffffff"
     bordercolor="#666666"
     borderopacity="1.0"
     inkscape:pageopacity="0.0"
     inkscape:pageshadow="2"
     inkscape:zoom="0.7"
     inkscape:cx="373.43827"
     inkscape:cy="387.80789"
     inkscape:document-units="mm"
     inkscape:current-layer="layer1"
     showgrid="false"
     fit-margin-top="0"
     fit-margin-left="0"
     fit-margin-right="0"
     fit-margin-bottom="0"
     inkscape:window-width="1809"
     inkscape:window-height="1057"
     inkscape:window-x="103"
     inkscape:window-y="-8"
     inkscape:window-maximized="1" />
  <metadata
     id="metadata5">
    <rdf:RDF>
      <cc:Work
         rdf:about="">
        <dc:format>image/svg+xml</dc:format>
        <dc:type
           rdf:resource="http://purl.org/dc/dcmitype/StillImage" />
        <dc:title />
      </cc:Work>
    </rdf:RDF>
  </metadata>
  <g
     inkscape:label="Calque 1"
     inkscape:groupmode="layer"
     id="layer1"
     transform="translate(-94.414237,26.534441)">
    <path
       style="fill:#000000;stroke-width:0.26458338;fill-opacity:1;stroke:none;stroke-opacity:1"
       d="M 169.28366,138.6732 C 149.40995,136.51019 132.48328,128.50275 118.73644,114.76105 103.24739,99.277773 94.461656,78.237093 94.414406,56.512963 c -0.0281,-12.9235 3.44556,-27.25229 9.271034,-38.24282 6.72516,-12.6879196 15.96666,-23.0320296 27.36593,-30.63099 12.06324,-8.04157 23.43806,-12.10127 38.58826,-13.77225 15.18808,-1.67516 33.04415,1.96658 46.87216,9.55958 14.9338,8.2001904 26.47937,19.9868804 34.35753,35.07504 6.82704,13.07508 10.2422,30.08222 8.89142,44.27841 -1.77076,18.61011 -8.53796,34.61526 -20.35169,48.133977 -1.18238,1.35302 -6.16751,6.34081 -7.55143,7.55546 -8.00444,7.02538 -17.65683,12.63501 -27.64895,16.0686 -11.03529,3.79204 -23.98756,5.32563 -34.92501,4.13523 z m 14.32562,-13.35485 c 16.63544,-1.69957 30.90165,-8.42395 42.489,-20.02717 4.03552,-4.04105 8.41007,-9.555427 10.75678,-13.559567 4.46777,-7.62327 7.52943,-16.21178 8.96037,-25.1354 0.48053,-2.99672 0.57304,-4.67962 0.57449,-10.45105 0.002,-5.94817 -0.08,-7.36258 -0.60209,-10.45105 -1.59041,-9.40803 -4.62894,-17.68543 -9.3494,-25.46911 -5.34222,-8.80891 -14.19658,-17.6652596 -23.17265,-23.1778296 -15.71994,-9.6542704 -35.40561,-12.5838004 -53.24253,-7.9232804 -6.41269,1.6755304 -12.31087,4.0677604 -17.33021,7.0289104 -8.11186,4.78556996 -15.76877,11.60774 -20.8591,18.5850596 -0.79624,1.09142 -1.67609,2.28204 -1.95522,2.64583 -0.70835,0.92323 -3.26727,5.14808 -4.11169,6.78851 -5.46855,10.62367 -8.18457,22.55622 -7.78939,34.22191 0.36692,10.83134 3.04399,20.92475 8.08664,30.48918 3.55147,6.73611 9.22445,13.884517 15.38397,19.385037 10.58024,9.44827 24.49113,15.52174 39.02604,17.03867 3.12114,0.32573 9.99963,0.33167 13.13499,0.0113 z M 157.37741,92.867463 c 2.9934,-0.378736 6.23486,0.229223 9.17622,-0.43427 0.0894,-16.937403 -0.0946,-29.84209 -0.24474,-48.062 h -8.66692 v -13.40764 c 10.61399,-0.18542 22.26129,-0.347317 31.66601,-0.3506 1.14047,21.439846 -0.16874,41.939333 0.69577,61.91241 2.53324,0 5.06647,0 7.59971,0 -0.0473,4.277432 -0.0945,8.554867 -0.1417,12.832297 -13.36146,0.0452 -26.72292,0.0904 -40.08438,0.1356 3e-5,-4.2086 3e-5,-8.417198 3e-5,-12.625797 z m 16.26879,-72.02597 c -3.2903,-1.17191 -5.24779,-2.78305 -6.65092,-5.47411 -1.1552,-2.21554 -1.49017,-3.71172 -1.36572,-6.1000496 0.19248,-3.69385 1.91207,-6.80955 4.84473,-8.77811004 2.41978,-1.62428996 3.94146,-2.02430996 7.67292,-2.01708996 2.85713,0.006 3.34717,0.0787 4.89479,0.73046996 4.39155,1.84959004 6.94887,5.75295004 6.97119,10.64047004 0.0238,5.2124396 -2.83808,9.1875696 -7.79377,10.8254496 -2.58436,0.85413 -6.44225,0.93197 -8.57322,0.17297 z"
       id="path3724"
       inkscape:connector-curvature="0"
       sodipodi:nodetypes="ssssssssscccscsscccsscscccsssccccccccccccccccssccscc" />
    <path
       style="fill:none;fill-opacity:1;stroke:none;stroke-width:1.42857146;stroke-opacity:1"
       d="M 280.67689,572.59276 C 192.00851,560.30613 116.01246,505.47285 78.064447,426.40219 60.669845,390.15781 53.943127,362.03699 52.800588,320.78749 51.79005,284.30369 54.858253,262.34439 65.511773,229.81288 86.84798,164.66077 137.75285,107.31475 201.12126,77.044322 272.56456,42.9166 356.35555,43.391505 427.43529,78.327007 c 57.29694,28.161303 104.07487,78.220313 127.53999,136.485873 6.70071,16.63835 10.28063,28.5079 14.86484,49.28571 2.94387,13.34302 3.30796,18.7085 3.29594,48.57143 -0.0114,29.75621 -0.39397,35.35727 -3.36124,49.28571 -7.77456,36.49398 -23.76976,74.19378 -42.69046,100.6191 -11.60245,16.20443 -36.6101,42.58685 -52.42953,55.3118 -31.47464,25.31785 -68.21487,42.31062 -110.79097,51.24212 -14.8588,3.11703 -22.53457,3.8342 -45.71428,4.27123 -15.32143,0.28885 -32.18413,-0.0744 -37.47269,-0.80722 z m 109.39269,-86.70845 c 0.5073,-7.66072 0.92568,-18.91072 0.92975,-25 l 0.007,-11.07143 h -14.10714 -14.10715 l -0.89285,-4.46429 c -0.49107,-2.45536 -0.89286,-46.38943 -0.89286,-97.63127 0,-51.24184 -0.42109,-101.9472 -0.93576,-112.67857 l -0.93575,-19.51159 H 320.2977 c -21.3604,0 -48.58217,0.4218 -60.49281,0.93733 l -21.6557,0.93733 v 25.49124 25.49125 h 16.19658 16.19659 l 0.94424,54.64285 c 0.51933,30.05357 0.94516,70.875 0.94627,90.71429 l 0.002,36.07143 h -15.59744 c -8.5786,0 -16.61432,0.3902 -17.85714,0.86713 -1.93209,0.74141 -2.2597,4.22788 -2.2597,24.04761 0,12.74927 0.42857,23.60907 0.95238,24.13287 0.5238,0.52382 34.8197,0.95239 76.2131,0.95239 H 389.1468 Z M 339.36765,175.52409 c 14.78603,-7.88087 21.876,-19.7779 22.13323,-37.13978 0.27811,-18.77032 -8.64919,-33.36029 -24.86533,-40.63766 -8.18016,-3.671037 -9.87816,-3.916608 -23.29746,-3.369356 -16.44916,0.670813 -22.91694,3.164008 -32.14363,12.390696 -8.73045,8.73045 -12.15868,17.38697 -12.21783,30.85083 -0.0456,10.39011 0.41163,12.33744 4.81739,20.51546 5.58021,10.35806 12.01284,16.23632 22.2127,20.29839 5.81314,2.31507 9.6845,2.75125 20.79587,2.34306 12.21396,-0.4487 14.59236,-1.00223 22.56506,-5.25164 z"
       id="path4548"
       inkscape:connector-curvature="0"
       transform="matrix(0.26458333,0,0,0.26458333,94.414237,-26.534441)" />
    <path
       style="fill:#ffffff;fill-opacity:1;stroke:none;stroke-width:1.42857146;stroke-opacity:1"
       d="M 275.29541,571.73539 C 215.84257,561.79152 167.20962,536.80663 127.3909,495.75035 96.443404,463.84099 78.671688,434.93696 65.186674,394.58101 41.46513,323.59066 50.49141,241.19853 88.825322,178.80673 133.9788,105.31549 212.00972,57.459397 294.58112,52.617416 c 64.16705,-3.762751 123.64938,13.297765 172.28145,49.413164 17.20223,12.77482 47.71593,43.74316 59.46161,60.34758 20.45003,28.90944 35.87163,65.26829 43.32386,102.14286 3.59237,17.77553 3.72527,20.07138 3.10103,53.57143 -0.71252,38.23708 -2.3186,48.43888 -12.38864,78.69244 -24.98256,75.05534 -86.73155,137.0125 -162.82288,163.37182 -27.61298,9.5656 -45.32761,12.44015 -80.09928,12.9977 -21.14696,0.33908 -34.27423,-0.10286 -42.14286,-1.41902 z m 115,-97.21437 v -25 h -14.12759 -14.12757 l -0.86177,-30.35714 c -0.47397,-16.69643 -0.74944,-65.39286 -0.61214,-108.21429 0.13728,-42.82143 -0.25204,-81.875 -0.8652,-86.78571 l -1.11483,-8.92858 -24.5026,0.003 c -13.47641,10e-4 -40.4133,0.42606 -59.85973,0.94303 l -35.35714,0.93994 v 25.48553 25.48554 h 16.42857 16.42857 v 90.71429 90.71429 h -12.67857 c -6.97321,0 -14.6875,0.40178 -17.14286,0.89285 l -4.46428,0.89286 v 24.10714 24.10715 h 76.42857 76.42857 v -25 z m -52.0855,-298.16661 c 19.65573,-10.15666 28.14473,-31.98048 21.0707,-54.16934 -3.37283,-10.57943 -15.33856,-22.651782 -25.94276,-26.173935 -10.14493,-3.369602 -29.49913,-2.565082 -38.82931,1.614066 -30.1622,13.510179 -34.85987,56.167809 -8.28882,75.267439 9.26118,6.65705 14.86206,8.05202 30.50426,7.59746 12.0982,-0.35158 15.38826,-0.98486 21.48593,-4.13569 z"
       id="path814"
       inkscape:connector-curvature="0"
       transform="matrix(0.26458333,0,0,0.26458333,94.414237,-26.534441)" />
  </g>
</svg>
