<?xml version="1.0" encoding="UTF-8" standalone="no"?>
<svg
   xmlns:dc="http://purl.org/dc/elements/1.1/"
   xmlns:cc="http://creativecommons.org/ns#"
   xmlns:rdf="http://www.w3.org/1999/02/22-rdf-syntax-ns#"
   xmlns:svg="http://www.w3.org/2000/svg"
   xmlns="http://www.w3.org/2000/svg"
   xmlns:sodipodi="http://sodipodi.sourceforge.net/DTD/sodipodi-0.dtd"
   xmlns:inkscape="http://www.inkscape.org/namespaces/inkscape"
   version="1.0"
   width="50"
   height="50"
   id="svg1897"
   inkscape:version="0.91 r13725"
   sodipodi:docname="signalisation_interdiction_camions.svg">
  <metadata
     id="metadata17">
    <rdf:RDF>
      <cc:Work
         rdf:about="">
        <dc:format>image/svg+xml</dc:format>
        <dc:type
           rdf:resource="http://purl.org/dc/dcmitype/StillImage" />
        <dc:title></dc:title>
      </cc:Work>
    </rdf:RDF>
  </metadata>
  <sodipodi:namedview
     pagecolor="#ffffff"
     bordercolor="#666666"
     borderopacity="1"
     objecttolerance="10"
     gridtolerance="10"
     guidetolerance="10"
     inkscape:pageopacity="0"
     inkscape:pageshadow="2"
     inkscape:window-width="1836"
     inkscape:window-height="1058"
     id="namedview15"
     showgrid="false"
     fit-margin-top="0"
     fit-margin-left="0"
     fit-margin-right="0"
     fit-margin-bottom="0"
     inkscape:zoom="2.220146"
     inkscape:cx="53.149697"
     inkscape:cy="52.699285"
     inkscape:window-x="76"
     inkscape:window-y="-8"
     inkscape:window-maximized="1"
     inkscape:current-layer="svg1897" />
  <defs
     id="defs1899" />
  <g
     transform="matrix(0.47036984,0,0,0.47036984,-47.571353,-127.30143)"
     id="layer1">
    <g
       transform="matrix(1.249992,0,0,-1.249992,-216.3619,854.8249)"
       style="font-style:normal;font-variant:normal;font-weight:normal;font-stretch:normal;letter-spacing:normal;word-spacing:normal;text-anchor:start;fill:none;fill-opacity:1;stroke:#000000;stroke-linecap:butt;stroke-linejoin:miter;stroke-miterlimit:10.43299961;stroke-dasharray:none;stroke-dashoffset:0;stroke-opacity:1"
       id="g10"
       xml:space="preserve">
<path
   d="m 296.52,467.35 2.19,-0.05 2.16,-0.17 2.13,-0.27 2.09,-0.37 2.06,-0.48 2.02,-0.57 1.97,-0.67 1.93,-0.76 1.89,-0.85 1.83,-0.94 1.78,-1.02 1.73,-1.11 1.66,-1.19 1.61,-1.26 1.54,-1.34 1.48,-1.4 1.41,-1.48 1.33,-1.54 1.27,-1.61 1.18,-1.67 1.11,-1.72 1.02,-1.78 0.94,-1.84 0.85,-1.88 0.76,-1.93 0.67,-1.98 0.57,-2.02 0.48,-2.05 0.37,-2.1 0.27,-2.12 0.17,-2.16 0.05,-2.19 c 0,-23.48 -19.03,-42.52 -42.52,-42.52 -23.48,0 -42.52,19.04 -42.52,42.52 0,23.48 19.04,42.52 42.52,42.52 z"
   style="fill:#ff1721;fill-rule:nonzero;stroke:#ff1721;stroke-width:0"
   id="path12"
   inkscape:connector-curvature="0" />
<path
   d="m 296.53,453.18 0.72,-0.01 0.71,-0.02 0.72,-0.05 0.7,-0.06 0.71,-0.08 0.7,-0.09 0.69,-0.11 0.69,-0.14 0.69,-0.14 0.68,-0.17 0.68,-0.18 0.68,-0.2 0.67,-0.22 0.66,-0.23 0.67,-0.25 0.65,-0.27 c 3.4,-1.44 6.4,-3.46 9.02,-6.08 2.62,-2.62 4.65,-5.63 6.08,-9.02 1.48,-3.5 2.22,-7.18 2.22,-11.03 0,-3.85 -0.74,-7.53 -2.22,-11.03 -1.43,-3.39 -3.46,-6.39 -6.08,-9.01 -2.62,-2.62 -5.62,-4.65 -9.02,-6.08 -3.5,-1.48 -7.17,-2.22 -11.02,-2.22 -3.85,0 -7.53,0.74 -11.03,2.22 -3.39,1.43 -6.4,3.46 -9.02,6.08 -2.62,2.62 -4.64,5.62 -6.08,9.01 -1.48,3.5 -2.22,7.18 -2.22,11.03 0,3.85 0.74,7.53 2.22,11.03 1.44,3.39 3.46,6.4 6.08,9.02 2.62,2.62 5.63,4.64 9.02,6.08 3.5,1.48 7.18,2.22 11.03,2.22 z"
   style="fill:#ffffff;fill-rule:nonzero;stroke:#ffffff;stroke-width:0"
   id="path14"
   inkscape:connector-curvature="0" />
<path
   d="m 282.21,422.33 0.19,0 0.18,-0.02 0.19,-0.02 0.18,-0.03 0.18,-0.05 0.17,-0.05 0.17,-0.05 0.17,-0.07 0.16,-0.08 0.16,-0.08 0.15,-0.09 0.15,-0.09 0.14,-0.11 0.14,-0.11 0.13,-0.11 0.13,-0.12 0.12,-0.13 0.12,-0.14 0.11,-0.13 0.1,-0.15 0.09,-0.15 0.09,-0.15 0.08,-0.16 0.07,-0.16 0.07,-0.16 0.05,-0.17 0.05,-0.18 0.04,-0.17 0.04,-0.18 0.02,-0.18 0.01,-0.18 0.01,-0.19 c 0.05,-2.03 -1.57,-3.76 -3.66,-3.76 -2.04,0 -3.66,1.67 -3.66,3.76 0,1.99 1.67,3.66 3.66,3.66 z"
   style="fill:#000000;fill-rule:nonzero;stroke-width:0"
   id="path16"
   inkscape:connector-curvature="0" />
<path
   d="m 308.28,422.33 0.19,0 0.19,-0.02 0.19,-0.02 0.19,-0.04 0.18,-0.04 0.18,-0.05 0.18,-0.06 0.17,-0.07 0.17,-0.08 0.16,-0.08 0.16,-0.09 0.16,-0.1 0.15,-0.11 0.14,-0.12 0.14,-0.12 0.13,-0.12 0.12,-0.13 0.12,-0.14 0.12,-0.15 0.1,-0.15 0.1,-0.15 0.09,-0.16 0.08,-0.17 0.08,-0.16 0.06,-0.18 0.06,-0.17 0.05,-0.18 0.04,-0.19 0.03,-0.18 0.02,-0.19 0.01,-0.2 0,-0.19 c -0.06,-1.99 -1.73,-3.56 -3.71,-3.56 -2.04,0 -3.71,1.57 -3.76,3.61 -0.05,2.04 1.61,3.76 3.71,3.76 z"
   style="fill:#000000;fill-rule:nonzero;stroke-width:0"
   id="path18"
   inkscape:connector-curvature="0" />
<path
   d="m 317.79,422.8 -5.85,0 0.52,-0.68 4.81,-0.1 0,-1.36 -3.5,-1.25 0,0 c 0,-0.06 0.05,-0.84 0.05,-0.89 l 0,0 -0.94,0 0,0 c 0,0.05 0,0.15 0,0.15 -0.21,2.46 -2.09,4.55 -4.55,4.55 -2.45,0.05 -4.44,-1.99 -4.65,-4.39 0,-0.11 0,-0.21 -0.05,-0.26 l 0,0 -16.98,0.05 0,0 c 0,0.05 0,0.16 0,0.21 0.05,2.4 -2.03,4.23 -4.44,4.23 -2.35,0 -4.33,-1.88 -4.44,-4.23 0,-0.11 0,-0.21 0,-0.26 l 0,0 -2.19,0 0.05,0.52 0,0 c -0.05,0.05 -0.16,0.05 -0.26,0.16 -0.1,0.1 -0.1,0.26 -0.1,0.31 l 0,0 0,0.47 0,0 c 0,0.05 0,0.31 0.05,0.36 0.05,0.11 0.21,0.11 0.31,0.11 l 0,0 0.52,0 0.53,5.07 0,0 c 0,0.21 0.1,0.47 0.25,0.63 0.21,0.2 0.63,0.31 0.68,0.31 l 0,0 0.63,0.05 1.57,3.34 0,0 c 0.31,0.63 1.36,1.36 2.24,1.36 l 0,0 5.13,0 -0.06,-9.19 16.77,-0.05 0.63,0.68 -16.82,0.05 0.1,12.69 29.99,0.05 0,-12.69 z"
   style="fill:#000000;fill-rule:nonzero;stroke-width:0"
   id="path20"
   inkscape:connector-curvature="0" />
<path
   d="m 282.21,420.14 0.07,0 0.08,-0.01 0.08,-0.01 0.07,-0.01 0.08,-0.02 0.07,-0.02 0.07,-0.02 0.07,-0.03 0.06,-0.03 0.07,-0.03 0.06,-0.04 0.06,-0.04 0.06,-0.04 0.06,-0.05 0.06,-0.04 0.05,-0.05 0.05,-0.05 0.05,-0.06 0.04,-0.05 0.04,-0.06 0.04,-0.06 0.04,-0.06 0.03,-0.06 0.03,-0.07 0.03,-0.06 0.02,-0.07 0.03,-0.07 0.01,-0.07 0.02,-0.07 0.01,-0.07 0,-0.07 0,-0.08 c 0,-0.88 -0.62,-1.56 -1.46,-1.56 -0.88,-0.06 -1.57,0.68 -1.57,1.51 0,0.84 0.69,1.52 1.52,1.52 z"
   style="fill:#ffffff;fill-rule:nonzero;stroke:#ffffff;stroke-width:0"
   id="path22"
   inkscape:connector-curvature="0" />
<path
   d="m 308.33,420.19 0.08,0 0.08,-0.01 0.08,-0.01 0.08,-0.02 0.07,-0.02 0.08,-0.02 0.07,-0.03 0.07,-0.03 0.07,-0.03 0.06,-0.04 0.07,-0.04 0.06,-0.05 0.06,-0.05 0.05,-0.05 0.05,-0.05 0.06,-0.06 0.04,-0.05 0.05,-0.07 0.04,-0.06 0.04,-0.07 0.03,-0.06 0.04,-0.07 0.03,-0.08 0.02,-0.07 0.03,-0.07 0.01,-0.08 0.02,-0.08 0.01,-0.08 0.01,-0.08 0.01,-0.08 0,-0.08 -0.01,-0.08 c 0,-0.79 -0.68,-1.41 -1.46,-1.41 -0.83,0 -1.51,0.57 -1.56,1.41 -0.06,0.88 0.67,1.67 1.56,1.67 z"
   style="fill:#ffffff;fill-rule:nonzero;stroke:#ffffff;stroke-width:0"
   id="path24"
   inkscape:connector-curvature="0" />
<polygon
   points="282.52,429.85 282.52,429.85 285.19,429.8 285.19,426.51 280.96,426.56 "
   style="fill:#ffffff;fill-rule:nonzero;stroke:#ffffff;stroke-width:0"
   id="polygon26" />
<polygon
   points="280.38,429.85 280.38,429.85 281.53,429.85 280.02,426.51 278.92,426.51 "
   style="fill:#ffffff;fill-rule:nonzero;stroke:#ffffff;stroke-width:0"
   id="polygon28" />
</g>  </g>
</svg>
