<?xml version="1.0" encoding="UTF-8" standalone="no"?>
<svg
   xmlns:dc="http://purl.org/dc/elements/1.1/"
   xmlns:cc="http://creativecommons.org/ns#"
   xmlns:rdf="http://www.w3.org/1999/02/22-rdf-syntax-ns#"
   xmlns:svg="http://www.w3.org/2000/svg"
   xmlns="http://www.w3.org/2000/svg"
   xmlns:sodipodi="http://sodipodi.sourceforge.net/DTD/sodipodi-0.dtd"
   xmlns:inkscape="http://www.inkscape.org/namespaces/inkscape"
   version="1.0"
   width="50"
   height="49.999996"
   id="svg1895"
   inkscape:version="0.91 r13725"
   sodipodi:docname="signalisation_hauteur_limitee.svg">
  <metadata
     id="metadata12">
    <rdf:RDF>
      <cc:Work
         rdf:about="">
        <dc:format>image/svg+xml</dc:format>
        <dc:type
           rdf:resource="http://purl.org/dc/dcmitype/StillImage" />
        <dc:title></dc:title>
      </cc:Work>
    </rdf:RDF>
  </metadata>
  <sodipodi:namedview
     pagecolor="#ffffff"
     bordercolor="#666666"
     borderopacity="1"
     objecttolerance="10"
     gridtolerance="10"
     guidetolerance="10"
     inkscape:pageopacity="0"
     inkscape:pageshadow="2"
     inkscape:window-width="1836"
     inkscape:window-height="1058"
     id="namedview10"
     showgrid="false"
     fit-margin-top="0"
     fit-margin-left="0"
     fit-margin-right="0"
     fit-margin-bottom="0"
     inkscape:zoom="2.220146"
     inkscape:cx="53.149667"
     inkscape:cy="52.699276"
     inkscape:window-x="76"
     inkscape:window-y="-8"
     inkscape:window-maximized="1"
     inkscape:current-layer="svg1895" />
  <defs
     id="defs1897" />
  <g
     transform="matrix(0.47036984,0,0,0.47036982,39.783052,-68.169208)"
     id="layer1">
    <g
       transform="matrix(1.249992,0,0,-1.249992,-402.0762,729.1106)"
       style="font-style:normal;font-variant:normal;font-weight:normal;font-stretch:normal;letter-spacing:normal;word-spacing:normal;text-anchor:start;fill:none;fill-opacity:1;stroke:#000000;stroke-linecap:butt;stroke-linejoin:miter;stroke-miterlimit:10.43299961;stroke-dasharray:none;stroke-dashoffset:0;stroke-opacity:1"
       id="g10"
       xml:space="preserve">
<path
   d="m 254,424.83 0.05,2.19 0.17,2.16 0.27,2.12 0.37,2.1 0.47,2.05 0.58,2.02 0.67,1.98 0.76,1.93 0.85,1.88 0.94,1.84 1.02,1.78 1.11,1.72 1.18,1.67 1.27,1.61 1.33,1.54 1.41,1.48 1.48,1.4 1.54,1.34 1.61,1.26 1.66,1.19 1.73,1.11 1.78,1.02 1.83,0.94 1.89,0.85 1.93,0.76 1.97,0.67 2.02,0.57 2.06,0.48 2.09,0.37 2.13,0.27 2.16,0.17 2.19,0.05 c 23.48,0 42.52,-19.04 42.52,-42.52 0,-23.48 -19.04,-42.52 -42.52,-42.52 -23.48,0 -42.52,19.04 -42.52,42.52 z"
   style="fill:#ff1721;fill-rule:nonzero;stroke:#ff1721;stroke-width:0"
   id="path12"
   inkscape:connector-curvature="0" />
<path
   d="m 268.18,424.83 0,0.72 0.03,0.71 0.04,0.72 0.06,0.7 0.08,0.71 0.1,0.7 0.11,0.69 0.13,0.7 0.15,0.68 0.16,0.69 0.18,0.68 0.2,0.67 0.22,0.67 0.23,0.67 0.26,0.66 0.26,0.66 c 1.44,3.39 3.47,6.39 6.09,9.02 2.62,2.62 5.62,4.64 9.01,6.07 3.5,1.49 7.18,2.23 11.03,2.23 3.85,0 7.53,-0.74 11.03,-2.23 3.39,-1.43 6.4,-3.45 9.02,-6.07 2.61,-2.63 4.64,-5.63 6.07,-9.02 1.48,-3.5 2.23,-7.18 2.23,-11.03 0,-3.85 -0.75,-7.53 -2.23,-11.03 -1.43,-3.39 -3.46,-6.39 -6.07,-9.01 -2.62,-2.62 -5.63,-4.65 -9.02,-6.08 -3.5,-1.48 -7.18,-2.23 -11.03,-2.23 -3.85,0 -7.53,0.75 -11.03,2.23 -3.39,1.43 -6.39,3.46 -9.01,6.08 -2.62,2.62 -4.65,5.62 -6.09,9.01 -1.48,3.5 -2.21,7.18 -2.21,11.03 z"
   style="fill:#ffffff;fill-rule:nonzero;stroke:#ffffff;stroke-width:0"
   id="path14"
   inkscape:connector-curvature="0" />
<path
   d="m 286.6,398.27 0.59,-0.22 0.6,-0.2 0.6,-0.19 0.61,-0.17 0.61,-0.16 0.61,-0.15 0.61,-0.13 0.62,-0.12 0.62,-0.1 0.63,-0.1 0.63,-0.07 0.63,-0.06 0.63,-0.05 0.64,-0.04 0.64,-0.02 0.65,-0.01 c 3.44,0 6.75,0.6 9.92,1.79 l 0,0 -9.96,8.84 -9.88,-8.84 z"
   style="fill:#000000;fill-rule:nonzero;stroke-width:0"
   id="path16"
   inkscape:connector-curvature="0" />
<path
   d="m 306.44,451.4 -0.6,0.21 -0.59,0.2 -0.61,0.19 -0.6,0.18 -0.61,0.16 -0.61,0.14 -0.62,0.13 -0.62,0.12 -0.62,0.11 -0.63,0.09 -0.62,0.07 -0.64,0.06 -0.63,0.05 -0.64,0.04 -0.64,0.02 -0.64,0.01 c -3.45,0 -6.76,-0.6 -9.92,-1.78 l 0,0 9.88,-8.85 9.96,8.85 z"
   style="fill:#000000;fill-rule:nonzero;stroke-width:0"
   id="path18"
   inkscape:connector-curvature="0" />
</g>  </g>
</svg>
