<?xml version="1.0" encoding="UTF-8" standalone="no"?>
<svg
   xmlns:dc="http://purl.org/dc/elements/1.1/"
   xmlns:cc="http://creativecommons.org/ns#"
   xmlns:rdf="http://www.w3.org/1999/02/22-rdf-syntax-ns#"
   xmlns:svg="http://www.w3.org/2000/svg"
   xmlns="http://www.w3.org/2000/svg"
   xmlns:sodipodi="http://sodipodi.sourceforge.net/DTD/sodipodi-0.dtd"
   xmlns:inkscape="http://www.inkscape.org/namespaces/inkscape"
   version="1.0"
   width="50"
   height="50"
   id="svg1887"
   inkscape:version="0.91 r13725"
   sodipodi:docname="signalisation_tout_droit.svg">
  <metadata
     id="metadata12">
    <rdf:RDF>
      <cc:Work
         rdf:about="">
        <dc:format>image/svg+xml</dc:format>
        <dc:type
           rdf:resource="http://purl.org/dc/dcmitype/StillImage" />
        <dc:title></dc:title>
      </cc:Work>
    </rdf:RDF>
  </metadata>
  <sodipodi:namedview
     pagecolor="#ffffff"
     bordercolor="#666666"
     borderopacity="1"
     objecttolerance="10"
     gridtolerance="10"
     guidetolerance="10"
     inkscape:pageopacity="0"
     inkscape:pageshadow="2"
     inkscape:window-width="1836"
     inkscape:window-height="1058"
     id="namedview10"
     showgrid="false"
     fit-margin-top="0"
     fit-margin-left="0"
     fit-margin-right="0"
     fit-margin-bottom="0"
     inkscape:zoom="17.702154"
     inkscape:cx="19.544836"
     inkscape:cy="25.071613"
     inkscape:window-x="76"
     inkscape:window-y="-8"
     inkscape:window-maximized="1"
     inkscape:current-layer="g10" />
  <defs
     id="defs1889" />
  <g
     transform="matrix(0.46880702,0,0,0.46880702,-110.28431,-168.31829)"
     id="layer1">
    <g
       transform="matrix(1.249992,0,0,-1.249992,-82.0762,943.3838)"
       style="font-style:normal;font-variant:normal;font-weight:normal;font-stretch:normal;letter-spacing:normal;word-spacing:normal;text-anchor:start;fill:none;fill-opacity:1;stroke:#000000;stroke-linecap:butt;stroke-linejoin:miter;stroke-miterlimit:10.43299961;stroke-dasharray:none;stroke-dashoffset:0;stroke-opacity:1"
       id="g10"
       xml:space="preserve">


<path
   d="m 253.8583,424.82001 0.0208,1.07952 0.0311,1.07951 0.0726,1.06914 0.0934,1.06914 0.11417,1.05876 0.1453,1.04838 0.16606,1.04837 0.1972,1.03801 0.22832,1.03799 0.24909,1.02762 0.26985,1.02762 0.30099,1.01724 0.33211,1.00685 0.35289,1.00687 0.37363,0.99648 0.40477,0.99648 c 2.15877,5.10695 5.21011,9.62224 9.14366,13.55625 3.9439,3.9444 8.45866,6.98574 13.56499,9.14477 5.28277,2.24208 10.81462,3.35274 16.60596,3.35274 5.78094,0 11.32318,-1.11066 16.60595,-3.35274 5.09595,-2.15903 9.62108,-5.20037 13.55461,-9.14477 3.94392,-3.93401 6.98489,-8.4493 9.14366,-13.55625 2.23143,-5.28342 3.35233,-10.81595 3.35233,-16.60798 0,-5.79204 -1.1209,-11.32457 -3.35233,-16.60799 -2.15877,-5.10695 -5.19974,-9.62224 -9.14366,-13.55626 -3.93353,-3.94439 -8.45866,-6.98573 -13.55461,-9.14477 -5.28277,-2.24208 -10.82501,-3.35273 -16.60595,-3.35273 -5.79134,0 -11.32319,1.11065 -16.60596,3.35273 -5.10633,2.15904 -9.62109,5.20038 -13.56499,9.14477 -3.93355,3.93402 -6.98489,8.44931 -9.14366,13.55626 -2.23143,5.28342 -3.35233,10.81595 -3.35233,16.60799 z"
   style="fill:#0070ff;fill-rule:nonzero;stroke:#0070ff;stroke-width:0"
   id="path16"
   inkscape:connector-curvature="0" />
<path
   d="m 296.53561,462.32289 -0.0415,0 -0.0519,0 -0.0415,0 -0.0519,-0.0103 -0.0415,0 -0.0519,-0.0103 -0.0415,-0.0103 -0.0415,-0.0104 -0.0415,-0.0103 -0.0415,-0.0104 -0.0519,-0.0208 -0.0415,-0.0103 -0.0415,-0.0208 -0.0415,-0.0208 -0.0311,-0.0208 -0.0415,-0.0208 -0.0415,-0.0208 -0.0415,-0.0208 -0.0311,-0.0208 -0.0415,-0.0208 -0.0311,-0.0311 -0.0415,-0.0208 -0.0311,-0.0311 -0.0311,-0.0311 -0.0311,-0.0311 -0.0311,-0.0311 -0.0311,-0.0311 -0.0311,-0.0311 -0.0311,-0.0311 -0.0208,-0.0311 -0.0311,-0.0311 -0.0208,-0.0415 0,0 -16.20119,-23.61447 0,0 c -0.15568,-0.22836 -0.24909,-0.50862 -0.24909,-0.79927 0,-0.78887 0.64349,-1.42206 1.44264,-1.42206 0.12455,0 0.23872,0.0208 0.3425,0.0415 l 0,0 10.42024,1.83726 -3.35232,-48.96241 17.60231,0.0104 -3.36271,48.96239 10.42024,-1.83726 0,0 c 0.11417,-0.0311 0.22834,-0.0415 0.35288,-0.0415 0.79916,0 1.44264,0.63317 1.44264,1.42206 0,0.29064 -0.0934,0.57089 -0.24909,0.79925 l 0,0 -16.20119,23.61447 0,0 c -0.25946,0.37368 -0.69537,0.6228 -1.19355,0.6228 z"
   style="fill:#ffffff;fill-rule:nonzero;stroke:#ffffff;stroke-width:0"
   id="path18"
   inkscape:connector-curvature="0" />
</g>  </g>
</svg>
